<svg width="49" height="49" viewBox="0 0 49 49" fill="none" xmlns="http://www.w3.org/2000/svg">
<rect x="0.167969" y="0.0195312" width="48.7695" height="48.7695" rx="7.98047" fill="url(#paint0_linear_69_109)"/>
<path d="M26.1382 32.048V16.8672H32.9271C34.4829 16.8672 35.8109 17.1265 36.9109 17.6451C38.011 18.148 38.8517 18.9652 39.4332 20.0967C40.0147 21.2124 40.3054 22.6975 40.3054 24.5519C40.3054 27.1606 39.6689 29.0621 38.396 30.2565C37.1231 31.4508 35.3001 32.048 32.9271 32.048H26.1382ZM30.5699 28.6535H32.3614C33.1 28.6535 33.7207 28.5514 34.2236 28.3471C34.7265 28.1271 35.1115 27.7264 35.3787 27.1449C35.6458 26.5477 35.7794 25.6834 35.7794 24.5519C35.7794 23.4204 35.6537 22.5482 35.4023 21.9353C35.1665 21.3067 34.7972 20.8746 34.2943 20.6388C33.7915 20.3874 33.1471 20.2617 32.3614 20.2617H30.5699V28.6535Z" fill="white"/>
<path d="M8.14844 32.048L13.9709 16.8672H18.6619L24.4843 32.048H19.8641L18.5912 28.8186H14.018L12.7687 32.048H8.14844ZM14.6074 25.6362H18.0018L16.3046 21.181L14.6074 25.6362Z" fill="white"/>
<defs>
<linearGradient id="paint0_linear_69_109" x1="24.5527" y1="0.0195312" x2="24.5527" y2="48.7891" gradientUnits="userSpaceOnUse">
<stop stop-color="#FA9639"/>
<stop offset="1" stop-color="#FF5C00"/>
</linearGradient>
</defs>
</svg>
