<svg width="191" height="191" viewBox="0 0 191 191" fill="none" xmlns="http://www.w3.org/2000/svg">
<g filter="url(#filter0_f_80_227)">
<g filter="url(#filter1_d_80_227)">
<path d="M94.8366 183.777C143.652 184.093 183.481 144.777 183.797 95.9619C184.113 47.1469 144.797 7.31799 95.9816 7.00189C47.1666 6.68589 7.33752 46.0019 7.02142 94.8169C6.70542 143.633 46.0216 183.461 94.8366 183.777Z" fill="url(#paint0_linear_80_227)"/>
</g>
<path d="M176.882 129.756C157.902 174.753 106.052 195.81 61.0877 176.844C16.1247 157.877 -5.01247 106.032 13.9678 61.0359L176.882 129.756Z" fill="#F26622"/>
<g filter="url(#filter2_d_80_227)">
<path d="M94.9185 171.069C136.716 171.34 170.818 137.676 171.089 95.8799C171.359 54.0829 137.696 19.981 95.8986 19.7104C54.1026 19.4398 20.0002 53.1029 19.7296 94.8999C19.459 136.696 53.1225 170.798 94.9185 171.069Z" fill="url(#paint1_linear_80_227)"/>
</g>
<path d="M73.2526 154.157C103.953 167.107 139.339 152.718 152.288 122.017C165.238 91.3169 150.849 55.9319 120.149 42.982C89.4487 30.0321 54.0627 44.4219 41.1132 75.1219C28.1633 105.822 42.5526 141.207 73.2526 154.157Z" fill="url(#paint2_linear_80_227)"/>
<path d="M71.9046 151.38C102.605 164.33 137.99 149.94 150.94 119.24C163.89 88.5399 149.501 53.1549 118.801 40.2048C88.1006 27.2549 52.7146 41.6443 39.765 72.3449C26.8151 103.045 41.2045 138.43 71.9046 151.38Z" fill="url(#paint3_linear_80_227)"/>
<path d="M39.877 72.0819C52.8218 41.3934 88.2238 26.9971 118.912 39.942C149.601 52.8869 163.997 88.2889 151.052 118.977L39.877 72.0819Z" fill="#F26622"/>
<path d="M76.1515 141.315C101.148 151.859 129.959 140.143 140.503 115.147C151.046 90.1509 139.33 61.3399 114.334 50.7959C89.3375 40.2524 60.5275 51.9679 49.9835 76.9639C39.4394 101.961 51.1555 130.771 76.1515 141.315Z" fill="url(#paint4_linear_80_227)"/>
<g filter="url(#filter3_d_80_227)">
<path d="M99.0218 88.9319L96.8718 94.0309C96.8718 94.0309 96.6478 94.2849 96.4698 94.2489C96.4698 94.2489 96.4368 94.2349 96.4038 94.2209C96.1738 94.1239 95.8968 94.0459 95.6528 93.9809C91.9108 93.0229 88.0238 94.5219 85.9098 97.6979C85.6028 98.1499 85.3148 98.6479 85.0788 99.2079L78.4468 114.93C78.2948 115.292 77.8598 115.496 77.4648 115.329L71.8408 112.957C71.4788 112.804 71.2748 112.369 71.4408 111.975L78.4898 95.2659C79.2668 93.4239 80.3638 91.8329 81.7338 90.5129C81.7618 90.4469 81.8088 90.4279 81.8698 90.3759C84.5218 87.8529 88.0768 86.4079 91.7228 86.3959C92.5388 86.3909 93.3268 86.4529 94.1668 86.5739C95.2968 86.7409 96.4048 87.0539 97.5238 87.5249C97.9178 87.6919 98.3128 87.8579 98.6468 88.0769C98.6468 88.0769 98.7458 88.1179 98.7788 88.1319C99.0468 88.3229 99.1468 88.6359 99.0078 88.9649L99.0218 88.9319Z" fill="white"/>
<path d="M118.739 80.8598L116.866 85.3009C116.477 86.2219 115.401 86.6588 114.48 86.2698L99.8438 80.0958C97.1128 78.9448 93.9798 80.2188 92.8418 82.9158C92.7868 83.0478 92.7448 83.1459 92.7038 83.2449C92.7038 83.2449 92.6758 83.3109 92.6618 83.3439C92.5508 83.6069 92.2698 83.7208 92.0068 83.6098L91.9418 83.5818C91.6778 83.4708 91.3548 83.4118 91.0778 83.3338C91.0118 83.3058 90.9458 83.2778 90.8988 83.2978C90.6078 83.2518 90.3498 83.2209 90.0598 83.1759C89.9938 83.1479 89.9138 83.1529 89.8668 83.1719C89.6748 83.1689 89.4828 83.1648 89.3238 83.1748C88.9248 83.2008 88.5268 83.2268 88.1338 83.3318C87.7078 83.4238 87.3148 83.5288 86.9268 83.7138C86.3648 83.9418 85.8558 84.2308 85.3518 84.5998C85.2908 84.6508 85.1838 84.7218 85.1228 84.7738C84.8148 84.9538 84.4498 84.9938 84.0878 84.8408C83.5938 84.6328 83.3378 84.1379 83.3868 83.6549C83.3868 83.6549 83.5118 83.3578 83.5678 83.2268C83.6508 83.0298 83.7338 82.8319 83.8168 82.6349C87.4798 73.9509 97.5018 69.8489 106.218 73.5249L117.829 78.4228C118.75 78.8118 119.188 79.8869 118.799 80.8079L118.739 80.8598Z" fill="white"/>
<path d="M103.001 114.864C103.001 114.864 102.945 114.996 102.918 115.061C102.89 115.127 102.862 115.193 102.782 115.198C102.457 115.603 102.112 115.961 101.72 116.339C99.067 118.862 95.546 120.321 91.885 120.365C91.82 120.337 91.759 120.389 91.693 120.361C89.79 120.372 87.894 119.999 86.052 119.222L81.809 117.432C80.724 116.974 80.21 115.712 80.668 114.626L81.945 111.6C82.402 110.515 83.665 110.001 84.751 110.459L87.974 111.819C88.5 112.041 89.04 112.23 89.622 112.32C91.683 112.763 93.79 112.451 95.618 111.517C96.207 111.223 96.891 111.163 97.483 111.413L102.449 113.508C102.976 113.73 103.223 114.338 103.001 114.864Z" fill="white"/>
</g>
</g>
<defs>
<filter id="filter0_f_80_227" x="0" y="0" width="190.798" height="190.815" filterUnits="userSpaceOnUse" color-interpolation-filters="sRGB">
<feFlood flood-opacity="0" result="BackgroundImageFix"/>
<feBlend mode="normal" in="SourceGraphic" in2="BackgroundImageFix" result="shape"/>
<feGaussianBlur stdDeviation="3.5" result="effect1_foregroundBlur_80_227"/>
</filter>
<filter id="filter1_d_80_227" x="7.01953" y="7" width="178.517" height="178.517" filterUnits="userSpaceOnUse" color-interpolation-filters="sRGB">
<feFlood flood-opacity="0" result="BackgroundImageFix"/>
<feColorMatrix in="SourceAlpha" type="matrix" values="0 0 0 0 0 0 0 0 0 0 0 0 0 0 0 0 0 0 127 0" result="hardAlpha"/>
<feOffset dx="1.73799" dy="1.73799"/>
<feColorMatrix type="matrix" values="0 0 0 0 0 0 0 0 0 0 0 0 0 0 0 0 0 0 0.46 0"/>
<feBlend mode="normal" in2="BackgroundImageFix" result="effect1_dropShadow_80_227"/>
<feBlend mode="normal" in="SourceGraphic" in2="effect1_dropShadow_80_227" result="shape"/>
</filter>
<filter id="filter2_d_80_227" x="19.728" y="19.7087" width="153.1" height="153.1" filterUnits="userSpaceOnUse" color-interpolation-filters="sRGB">
<feFlood flood-opacity="0" result="BackgroundImageFix"/>
<feColorMatrix in="SourceAlpha" type="matrix" values="0 0 0 0 0 0 0 0 0 0 0 0 0 0 0 0 0 0 127 0" result="hardAlpha"/>
<feOffset dx="1.73799" dy="1.73799"/>
<feColorMatrix type="matrix" values="0 0 0 0 0 0 0 0 0 0 0 0 0 0 0 0 0 0 0.46 0"/>
<feBlend mode="normal" in2="BackgroundImageFix" result="effect1_dropShadow_80_227"/>
<feBlend mode="normal" in="SourceGraphic" in2="effect1_dropShadow_80_227" result="shape"/>
</filter>
<filter id="filter3_d_80_227" x="71.3823" y="72.1763" width="48.4276" height="49.0621" filterUnits="userSpaceOnUse" color-interpolation-filters="sRGB">
<feFlood flood-opacity="0" result="BackgroundImageFix"/>
<feColorMatrix in="SourceAlpha" type="matrix" values="0 0 0 0 0 0 0 0 0 0 0 0 0 0 0 0 0 0 127 0" result="hardAlpha"/>
<feOffset dx="0.868996" dy="0.868996"/>
<feColorMatrix type="matrix" values="0 0 0 0 0 0 0 0 0 0 0 0 0 0 0 0 0 0 0.46 0"/>
<feBlend mode="normal" in2="BackgroundImageFix" result="effect1_dropShadow_80_227"/>
<feBlend mode="normal" in="SourceGraphic" in2="effect1_dropShadow_80_227" result="shape"/>
</filter>
<linearGradient id="paint0_linear_80_227" x1="129.763" y1="13.9508" x2="61.0416" y2="176.865" gradientUnits="userSpaceOnUse">
<stop stop-color="#F2B822"/>
<stop offset="1" stop-color="#F26622"/>
</linearGradient>
<linearGradient id="paint1_linear_80_227" x1="124.809" y1="25.6934" x2="65.9945" y2="165.123" gradientUnits="userSpaceOnUse">
<stop stop-color="#F2B822"/>
<stop offset="0.23" stop-color="#F2B222"/>
<stop offset="0.5" stop-color="#F2A422"/>
<stop offset="0.79" stop-color="#F28C22"/>
<stop offset="1" stop-color="#F27622"/>
</linearGradient>
<linearGradient id="paint2_linear_80_227" x1="73.2197" y1="154.143" x2="120.116" y2="42.9682" gradientUnits="userSpaceOnUse">
<stop stop-color="#8F3B00"/>
</linearGradient>
<linearGradient id="paint3_linear_80_227" x1="71.9046" y1="151.38" x2="118.801" y2="40.2048" gradientUnits="userSpaceOnUse">
<stop stop-color="#F2CF00"/>
</linearGradient>
<linearGradient id="paint4_linear_80_227" x1="76.1515" y1="141.315" x2="114.348" y2="50.7629" gradientUnits="userSpaceOnUse">
<stop stop-color="#F2B822"/>
<stop offset="0.23" stop-color="#F2B222"/>
<stop offset="0.5" stop-color="#F2A422"/>
<stop offset="0.79" stop-color="#F28C22"/>
<stop offset="1" stop-color="#F27622"/>
</linearGradient>
</defs>
</svg>
