<svg width="111" height="111" viewBox="0 0 111 111" fill="none" xmlns="http://www.w3.org/2000/svg">
<g filter="url(#filter0_f_80_310)">
<g filter="url(#filter1_d_80_310)">
<path d="M55.1015 102.795C81.278 102.964 102.636 81.8814 102.805 55.7049C102.975 29.5283 81.892 8.17052 55.7155 8.00101C29.539 7.83156 8.18102 28.9144 8.01151 55.0909C7.84206 81.268 28.925 102.625 55.1015 102.795Z" fill="url(#paint0_linear_80_310)"/>
</g>
<path d="M99.0973 73.8266C88.9195 97.9558 61.1155 109.247 37.004 99.077C12.893 88.9062 1.55844 61.1048 11.7364 36.9762L99.0973 73.8266Z" fill="#F26622"/>
<g filter="url(#filter2_d_80_310)">
<path d="M55.1456 95.9802C77.5588 96.1255 95.8456 78.0736 95.9909 55.6609C96.1357 33.2477 78.0843 14.9609 55.6711 14.8158C33.2584 14.6707 14.9714 32.7222 14.8263 55.1354C14.6812 77.5481 32.7329 95.8349 55.1456 95.9802Z" fill="url(#paint1_linear_80_310)"/>
</g>
<path d="M43.5272 86.9113C59.9898 93.8556 78.9651 86.1396 85.9089 69.6766C92.8532 53.214 85.1373 34.2392 68.6747 27.2949C52.2122 20.3507 33.2368 28.067 26.2927 44.5296C19.3485 60.9922 27.0647 79.967 43.5272 86.9113Z" fill="url(#paint2_linear_80_310)"/>
<path d="M42.8044 85.4222C59.2669 92.3665 78.2418 84.65 85.1861 68.1874C92.1304 51.7249 84.4144 32.75 67.9519 25.8057C51.4893 18.8614 32.5139 26.5776 25.5698 43.0405C18.6256 59.503 26.3418 78.4779 42.8044 85.4222Z" fill="url(#paint3_linear_80_310)"/>
<path d="M25.6299 42.8996C32.5714 26.4432 51.5553 18.7233 68.0115 25.6649C84.4681 32.6064 92.1878 51.5904 85.2462 68.0465L25.6299 42.8996Z" fill="#F26622"/>
<path d="M45.082 80.0249C58.4858 85.679 73.9354 79.3965 79.5895 65.9926C85.2431 52.5888 78.9605 37.1392 65.5567 31.4851C52.1528 25.8312 36.7038 32.1135 31.0497 45.5174C25.3955 58.9218 31.6781 74.3708 45.082 80.0249Z" fill="url(#paint4_linear_80_310)"/>
<g filter="url(#filter3_d_80_310)">
<path d="M57.3458 51.9351L56.1929 54.6694C56.1929 54.6694 56.0728 54.8056 55.9773 54.7863C55.9773 54.7863 55.9596 54.7788 55.9419 54.7713C55.8186 54.7193 55.6701 54.6775 55.5392 54.6426C53.5326 54.1289 51.4483 54.9327 50.3146 56.6358C50.15 56.8782 49.9956 57.1452 49.869 57.4455L46.3127 65.8763C46.2312 66.0704 45.9979 66.1798 45.7861 66.0902L42.7703 64.8183C42.5762 64.7362 42.4668 64.503 42.5558 64.2917L46.3357 55.3317C46.7524 54.3439 47.3407 53.4908 48.0753 52.7829C48.0903 52.7475 48.1155 52.7373 48.1482 52.7095C49.5703 51.3565 51.4767 50.5817 53.4318 50.5752C53.8694 50.5725 54.2919 50.6058 54.7424 50.6707C55.3483 50.7602 55.9425 50.9281 56.5425 51.1806C56.7538 51.2702 56.9656 51.3592 57.1447 51.4766C57.1447 51.4766 57.1978 51.4986 57.2155 51.5061C57.3592 51.6086 57.4128 51.7764 57.3383 51.9528L57.3458 51.9351Z" fill="white"/>
<path d="M67.9188 47.6065L66.9144 49.988C66.7058 50.4819 66.1289 50.7162 65.635 50.5076L57.7866 47.1969C56.3221 46.5797 54.6421 47.2628 54.0318 48.7091C54.0023 48.7798 53.9798 48.8324 53.9578 48.8855C53.9578 48.8855 53.9428 48.9209 53.9353 48.9386C53.8758 49.0796 53.7251 49.1407 53.5841 49.0812L53.5492 49.0662C53.4076 49.0067 53.2344 48.975 53.0859 48.9332C53.0505 48.9182 53.0151 48.9032 52.9899 48.9139C52.8339 48.8892 52.6955 48.8726 52.54 48.8485C52.5046 48.8335 52.4617 48.8362 52.4365 48.8463C52.3336 48.8447 52.2306 48.8426 52.1453 48.8479C51.9314 48.8619 51.718 48.8758 51.5072 48.9321C51.2788 48.9815 51.068 49.0378 50.86 49.137C50.5586 49.2592 50.2857 49.4142 50.0154 49.6121C49.9827 49.6394 49.9253 49.6775 49.8926 49.7054C49.7274 49.8019 49.5317 49.8234 49.3376 49.7413C49.0727 49.6298 48.9354 49.3643 48.9617 49.1053C48.9617 49.1053 49.0287 48.9461 49.0587 48.8758C49.1032 48.7702 49.1478 48.664 49.1923 48.5584C51.1565 43.9017 56.5307 41.702 61.2046 43.6732L67.4308 46.2997C67.9247 46.5083 68.1596 47.0848 67.951 47.5787L67.9188 47.6065Z" fill="white"/>
<path d="M59.4795 65.8409C59.4795 65.8409 59.4495 65.9117 59.435 65.9465C59.42 65.9819 59.405 66.0173 59.3621 66.02C59.1878 66.2372 59.0028 66.4291 58.7926 66.6318C57.3699 67.9848 55.4818 68.7671 53.5186 68.7907C53.4838 68.7757 53.4511 68.8036 53.4157 68.7886C52.3952 68.7945 51.3785 68.5945 50.3908 68.1778L48.1155 67.218C47.5337 66.9724 47.2581 66.2956 47.5037 65.7133L48.1884 64.0906C48.4335 63.5088 49.1108 63.2332 49.6931 63.4787L51.4214 64.208C51.7035 64.3271 51.993 64.4284 52.3051 64.4767C53.4103 64.7142 54.5402 64.5469 55.5204 64.0461C55.8363 63.8884 56.2031 63.8563 56.5205 63.9903L59.1835 65.1137C59.4661 65.2328 59.5985 65.5588 59.4795 65.8409Z" fill="white"/>
</g>
</g>
<defs>
<filter id="filter0_f_80_310" x="0" y="0" width="110.806" height="110.815" filterUnits="userSpaceOnUse" color-interpolation-filters="sRGB">
<feFlood flood-opacity="0" result="BackgroundImageFix"/>
<feBlend mode="normal" in="SourceGraphic" in2="BackgroundImageFix" result="shape"/>
<feGaussianBlur stdDeviation="4" result="effect1_foregroundBlur_80_310"/>
</filter>
<filter id="filter1_d_80_310" x="8.0105" y="8" width="96.5339" height="96.5338" filterUnits="userSpaceOnUse" color-interpolation-filters="sRGB">
<feFlood flood-opacity="0" result="BackgroundImageFix"/>
<feColorMatrix in="SourceAlpha" type="matrix" values="0 0 0 0 0 0 0 0 0 0 0 0 0 0 0 0 0 0 127 0" result="hardAlpha"/>
<feOffset dx="1.73799" dy="1.73799"/>
<feColorMatrix type="matrix" values="0 0 0 0 0 0 0 0 0 0 0 0 0 0 0 0 0 0 0.46 0"/>
<feBlend mode="normal" in2="BackgroundImageFix" result="effect1_dropShadow_80_310"/>
<feBlend mode="normal" in="SourceGraphic" in2="effect1_dropShadow_80_310" result="shape"/>
</filter>
<filter id="filter2_d_80_310" x="14.8254" y="14.8149" width="82.9042" height="82.9041" filterUnits="userSpaceOnUse" color-interpolation-filters="sRGB">
<feFlood flood-opacity="0" result="BackgroundImageFix"/>
<feColorMatrix in="SourceAlpha" type="matrix" values="0 0 0 0 0 0 0 0 0 0 0 0 0 0 0 0 0 0 127 0" result="hardAlpha"/>
<feOffset dx="1.73799" dy="1.73799"/>
<feColorMatrix type="matrix" values="0 0 0 0 0 0 0 0 0 0 0 0 0 0 0 0 0 0 0.46 0"/>
<feBlend mode="normal" in2="BackgroundImageFix" result="effect1_dropShadow_80_310"/>
<feBlend mode="normal" in="SourceGraphic" in2="effect1_dropShadow_80_310" result="shape"/>
</filter>
<filter id="filter3_d_80_310" x="42.5244" y="42.9501" width="26.3717" height="26.7121" filterUnits="userSpaceOnUse" color-interpolation-filters="sRGB">
<feFlood flood-opacity="0" result="BackgroundImageFix"/>
<feColorMatrix in="SourceAlpha" type="matrix" values="0 0 0 0 0 0 0 0 0 0 0 0 0 0 0 0 0 0 127 0" result="hardAlpha"/>
<feOffset dx="0.868996" dy="0.868996"/>
<feColorMatrix type="matrix" values="0 0 0 0 0 0 0 0 0 0 0 0 0 0 0 0 0 0 0.46 0"/>
<feBlend mode="normal" in2="BackgroundImageFix" result="effect1_dropShadow_80_310"/>
<feBlend mode="normal" in="SourceGraphic" in2="effect1_dropShadow_80_310" result="shape"/>
</filter>
<linearGradient id="paint0_linear_80_310" x1="73.8302" y1="11.7273" x2="36.9793" y2="99.0883" gradientUnits="userSpaceOnUse">
<stop stop-color="#F2B822"/>
<stop offset="1" stop-color="#F26622"/>
</linearGradient>
<linearGradient id="paint1_linear_80_310" x1="71.1738" y1="18.0241" x2="39.6354" y2="92.7917" gradientUnits="userSpaceOnUse">
<stop stop-color="#F2B822"/>
<stop offset="0.23" stop-color="#F2B222"/>
<stop offset="0.5" stop-color="#F2A422"/>
<stop offset="0.79" stop-color="#F28C22"/>
<stop offset="1" stop-color="#F27622"/>
</linearGradient>
<linearGradient id="paint2_linear_80_310" x1="43.5095" y1="86.9038" x2="68.657" y2="27.2875" gradientUnits="userSpaceOnUse">
<stop stop-color="#8F3B00"/>
</linearGradient>
<linearGradient id="paint3_linear_80_310" x1="42.8044" y1="85.4222" x2="67.9519" y2="25.8057" gradientUnits="userSpaceOnUse">
<stop stop-color="#F2CF00"/>
</linearGradient>
<linearGradient id="paint4_linear_80_310" x1="45.082" y1="80.0249" x2="65.5642" y2="31.4674" gradientUnits="userSpaceOnUse">
<stop stop-color="#F2B822"/>
<stop offset="0.23" stop-color="#F2B222"/>
<stop offset="0.5" stop-color="#F2A422"/>
<stop offset="0.79" stop-color="#F28C22"/>
<stop offset="1" stop-color="#F27622"/>
</linearGradient>
</defs>
</svg>
