<svg width="88" height="88" viewBox="0 0 88 88" fill="none" xmlns="http://www.w3.org/2000/svg">
<g filter="url(#filter0_f_80_241)">
<g filter="url(#filter1_d_80_241)">
<path d="M43.3623 79.1691C63.0149 79.2963 79.0497 63.468 79.177 43.8154C79.3042 24.1628 63.4759 8.12802 43.8233 8.00076C24.1707 7.87354 8.13583 23.7019 8.00857 43.3544C7.88135 63.0074 23.7098 79.0419 43.3623 79.1691Z" fill="url(#paint0_linear_80_241)"/>
</g>
<path d="M76.3931 57.4206C68.7519 75.536 47.8775 84.0134 29.7753 76.3778C11.6735 68.7419 3.16387 47.8695 10.8052 29.7544L76.3931 57.4206Z" fill="#F26622"/>
<g filter="url(#filter2_d_80_241)">
<path d="M43.3952 74.0529C60.2223 74.162 73.9516 60.6091 74.0607 43.7824C74.1694 26.9552 60.6169 13.226 43.7897 13.1171C26.963 13.0082 13.2336 26.5607 13.1247 43.3878C13.0157 60.2146 26.5684 73.9438 43.3952 74.0529Z" fill="url(#paint1_linear_80_241)"/>
</g>
<path d="M34.6728 67.2443C47.0324 72.4579 61.2785 66.665 66.4917 54.305C71.7053 41.9454 65.9124 27.6996 53.5528 22.4861C41.1932 17.2726 26.947 23.0658 21.7337 35.4254C16.5201 47.785 22.3132 62.0307 34.6728 67.2443Z" fill="url(#paint2_linear_80_241)"/>
<path d="M34.1304 66.1263C46.49 71.3399 60.7357 65.5466 65.9493 53.187C71.1628 40.8274 65.3699 26.5817 53.0103 21.3681C40.6507 16.1545 26.4046 21.9476 21.1912 34.3074C15.9777 46.667 21.7707 60.9128 34.1304 66.1263Z" fill="url(#paint3_linear_80_241)"/>
<path d="M21.2358 34.2015C26.4473 21.8465 40.6999 16.0507 53.0547 21.2622C65.4098 26.4737 71.2056 40.7263 65.994 53.081L21.2358 34.2015Z" fill="#F26622"/>
<path d="M35.8401 62.0742C45.9033 66.3192 57.5024 61.6024 61.7473 51.5392C65.9918 41.476 61.2751 29.8769 51.2119 25.6319C41.1486 21.3872 29.55 26.1038 25.305 36.167C21.06 46.2306 25.7769 57.8293 35.8401 62.0742Z" fill="url(#paint4_linear_80_241)"/>
<g filter="url(#filter3_d_80_241)">
<path d="M45.0474 40.9852L44.1818 43.038C44.1818 43.038 44.0916 43.1403 44.02 43.1258C44.02 43.1258 44.0067 43.1201 43.9934 43.1145C43.9008 43.0755 43.7893 43.0441 43.6911 43.0179C42.1846 42.6322 40.6197 43.2357 39.7686 44.5143C39.645 44.6963 39.5291 44.8968 39.434 45.1222L36.764 51.4518C36.7028 51.5975 36.5277 51.6797 36.3687 51.6124L34.1045 50.6575C33.9588 50.5959 33.8766 50.4208 33.9435 50.2621L36.7814 43.5352C37.0942 42.7936 37.5358 42.1531 38.0874 41.6217C38.0986 41.5951 38.1176 41.5875 38.1421 41.5665C39.2098 40.5508 40.641 39.9691 42.1089 39.9642C42.4374 39.9622 42.7546 39.9872 43.0928 40.0359C43.5477 40.1031 43.9938 40.2291 44.4443 40.4188C44.6029 40.486 44.762 40.5528 44.8964 40.641C44.8964 40.641 44.9363 40.6575 44.9496 40.6631C45.0575 40.74 45.0977 40.866 45.0418 40.9985L45.0474 40.9852Z" fill="white"/>
<path d="M52.9848 37.7354L52.2308 39.5234C52.0742 39.8941 51.641 40.0701 51.2702 39.9135L45.3779 37.4279C44.2784 36.9645 43.0171 37.4774 42.5589 38.5632C42.5368 38.6163 42.5199 38.6558 42.5033 38.6956C42.5033 38.6956 42.4921 38.7222 42.4864 38.7355C42.4418 38.8414 42.3286 38.8873 42.2227 38.8426L42.1966 38.8313C42.0903 38.7866 41.9603 38.7629 41.8487 38.7315C41.8222 38.7202 41.7956 38.7089 41.7767 38.717C41.6595 38.6984 41.5556 38.686 41.4389 38.6679C41.4123 38.6566 41.3801 38.6586 41.3612 38.6662C41.2839 38.665 41.2066 38.6634 41.1426 38.6674C40.9819 38.6779 40.8217 38.6884 40.6635 38.7307C40.492 38.7677 40.3338 38.81 40.1776 38.8844C39.9513 38.9762 39.7464 39.0926 39.5435 39.2411C39.5189 39.2617 39.4759 39.2903 39.4513 39.3112C39.3273 39.3837 39.1803 39.3998 39.0346 39.3382C38.8357 39.2544 38.7327 39.0551 38.7524 38.8607C38.7524 38.8607 38.8027 38.7411 38.8253 38.6884C38.8587 38.6091 38.8921 38.5294 38.9255 38.45C40.4002 34.9539 44.435 33.3025 47.944 34.7824L52.6185 36.7543C52.9893 36.9109 53.1656 37.3437 53.009 37.7145L52.9848 37.7354Z" fill="white"/>
<path d="M46.6494 51.4251C46.6494 51.4251 46.6268 51.4782 46.616 51.5044C46.6047 51.531 46.5934 51.5576 46.5612 51.5596C46.4304 51.7226 46.2915 51.8667 46.1336 52.0189C45.0656 53.0347 43.648 53.622 42.1741 53.6398C42.148 53.6285 42.1234 53.6494 42.0968 53.6381C41.3307 53.6426 40.5674 53.4924 39.8258 53.1796L38.1176 52.459C37.6808 52.2746 37.4739 51.7665 37.6583 51.3293L38.1724 50.111C38.3564 49.6742 38.8648 49.4673 39.302 49.6517L40.5996 50.1992C40.8114 50.2886 41.0288 50.3647 41.2631 50.4009C42.0928 50.5792 42.9411 50.4536 43.677 50.0776C43.9142 49.9593 44.1895 49.9351 44.4279 50.0357L46.4271 50.8792C46.6393 50.9686 46.7387 51.2133 46.6494 51.4251Z" fill="white"/>
</g>
</g>
<defs>
<filter id="filter0_f_80_241" x="0" y="0" width="87.1777" height="87.1846" filterUnits="userSpaceOnUse" color-interpolation-filters="sRGB">
<feFlood flood-opacity="0" result="BackgroundImageFix"/>
<feBlend mode="normal" in="SourceGraphic" in2="BackgroundImageFix" result="shape"/>
<feGaussianBlur stdDeviation="4" result="effect1_foregroundBlur_80_241"/>
</filter>
<filter id="filter1_d_80_241" x="8.00781" y="8" width="72.9079" height="72.9078" filterUnits="userSpaceOnUse" color-interpolation-filters="sRGB">
<feFlood flood-opacity="0" result="BackgroundImageFix"/>
<feColorMatrix in="SourceAlpha" type="matrix" values="0 0 0 0 0 0 0 0 0 0 0 0 0 0 0 0 0 0 127 0" result="hardAlpha"/>
<feOffset dx="1.73799" dy="1.73799"/>
<feColorMatrix type="matrix" values="0 0 0 0 0 0 0 0 0 0 0 0 0 0 0 0 0 0 0.46 0"/>
<feBlend mode="normal" in2="BackgroundImageFix" result="effect1_dropShadow_80_241"/>
<feBlend mode="normal" in="SourceGraphic" in2="effect1_dropShadow_80_241" result="shape"/>
</filter>
<filter id="filter2_d_80_241" x="13.124" y="13.1165" width="62.6755" height="62.6751" filterUnits="userSpaceOnUse" color-interpolation-filters="sRGB">
<feFlood flood-opacity="0" result="BackgroundImageFix"/>
<feColorMatrix in="SourceAlpha" type="matrix" values="0 0 0 0 0 0 0 0 0 0 0 0 0 0 0 0 0 0 127 0" result="hardAlpha"/>
<feOffset dx="1.73799" dy="1.73799"/>
<feColorMatrix type="matrix" values="0 0 0 0 0 0 0 0 0 0 0 0 0 0 0 0 0 0 0.46 0"/>
<feBlend mode="normal" in2="BackgroundImageFix" result="effect1_dropShadow_80_241"/>
<feBlend mode="normal" in="SourceGraphic" in2="effect1_dropShadow_80_241" result="shape"/>
</filter>
<filter id="filter3_d_80_241" x="33.9199" y="34.2395" width="20.0155" height="20.2711" filterUnits="userSpaceOnUse" color-interpolation-filters="sRGB">
<feFlood flood-opacity="0" result="BackgroundImageFix"/>
<feColorMatrix in="SourceAlpha" type="matrix" values="0 0 0 0 0 0 0 0 0 0 0 0 0 0 0 0 0 0 127 0" result="hardAlpha"/>
<feOffset dx="0.868996" dy="0.868996"/>
<feColorMatrix type="matrix" values="0 0 0 0 0 0 0 0 0 0 0 0 0 0 0 0 0 0 0.46 0"/>
<feBlend mode="normal" in2="BackgroundImageFix" result="effect1_dropShadow_80_241"/>
<feBlend mode="normal" in="SourceGraphic" in2="effect1_dropShadow_80_241" result="shape"/>
</filter>
<linearGradient id="paint0_linear_80_241" x1="57.4233" y1="10.7983" x2="29.7567" y2="76.3864" gradientUnits="userSpaceOnUse">
<stop stop-color="#F2B822"/>
<stop offset="1" stop-color="#F26622"/>
</linearGradient>
<linearGradient id="paint1_linear_80_241" x1="55.4287" y1="15.5258" x2="31.7506" y2="71.6591" gradientUnits="userSpaceOnUse">
<stop stop-color="#F2B822"/>
<stop offset="0.23" stop-color="#F2B222"/>
<stop offset="0.5" stop-color="#F2A422"/>
<stop offset="0.79" stop-color="#F28C22"/>
<stop offset="1" stop-color="#F27622"/>
</linearGradient>
<linearGradient id="paint2_linear_80_241" x1="34.6595" y1="67.2387" x2="53.5395" y2="22.4805" gradientUnits="userSpaceOnUse">
<stop stop-color="#8F3B00"/>
</linearGradient>
<linearGradient id="paint3_linear_80_241" x1="34.1304" y1="66.1263" x2="53.0103" y2="21.3681" gradientUnits="userSpaceOnUse">
<stop stop-color="#F2CF00"/>
</linearGradient>
<linearGradient id="paint4_linear_80_241" x1="35.8401" y1="62.0742" x2="51.2175" y2="25.6187" gradientUnits="userSpaceOnUse">
<stop stop-color="#F2B822"/>
<stop offset="0.23" stop-color="#F2B222"/>
<stop offset="0.5" stop-color="#F2A422"/>
<stop offset="0.79" stop-color="#F28C22"/>
<stop offset="1" stop-color="#F27622"/>
</linearGradient>
</defs>
</svg>
