<svg width="49" height="48" viewBox="0 0 49 48" fill="none" xmlns="http://www.w3.org/2000/svg">
<g clip-path="url(#clip0_69_114)">
<mask id="mask0_69_114" style="mask-type:alpha" maskUnits="userSpaceOnUse" x="0" y="0" width="49" height="48">
<path d="M24.779 32.1195C29.2904 32.1195 32.9477 28.4668 32.9477 23.961C32.9477 19.4552 29.2904 15.8025 24.779 15.8025C20.2676 15.8025 16.6104 19.4552 16.6104 23.961C16.6104 28.4668 20.2676 32.1195 24.779 32.1195Z" fill="#FAEE39"/>
<path d="M43.5594 29.0239C46.3591 29.0239 48.6288 26.757 48.6288 23.9608C48.6288 21.1645 46.3591 18.8977 43.5594 18.8977C40.7596 18.8977 38.49 21.1645 38.49 23.9608C38.49 26.757 40.7596 29.0239 43.5594 29.0239Z" fill="#FAEE39"/>
<path d="M5.81548 29.0239C8.61522 29.0239 10.8849 26.757 10.8849 23.9608C10.8849 21.1645 8.61522 18.8977 5.81548 18.8977C3.01573 18.8977 0.746094 21.1645 0.746094 23.9608C0.746094 26.757 3.01573 29.0239 5.81548 29.0239Z" fill="#FAEE39"/>
<path d="M24.7791 47.9025C27.5788 47.9025 29.8485 45.6357 29.8485 42.8394C29.8485 40.0432 27.5788 37.7764 24.7791 37.7764C21.9794 37.7764 19.7097 40.0432 19.7097 42.8394C19.7097 45.6357 21.9794 47.9025 24.7791 47.9025Z" fill="#FAEE39"/>
<path d="M24.7791 10.1457C27.5788 10.1457 29.8485 7.87887 29.8485 5.08261C29.8485 2.28635 27.5788 0.0195312 24.7791 0.0195312C21.9794 0.0195312 19.7097 2.28635 19.7097 5.08261C19.7097 7.87887 21.9794 10.1457 24.7791 10.1457Z" fill="#FAEE39"/>
<path d="M38.2736 40.6056C38.2733 41.1121 38.1307 41.6084 37.8618 42.0379C37.5929 42.4674 37.2087 42.8128 36.7529 43.0349C36.2971 43.2569 35.788 43.3466 35.2836 43.2938C34.7792 43.241 34.2998 43.0477 33.9 42.7361L33.3275 42.1166L29.8485 38.4076C29.2389 37.6504 28.467 37.0394 27.5897 36.6196C26.7124 36.1998 25.7519 35.9818 24.7791 35.9818C23.8063 35.9818 22.8458 36.1998 21.9685 36.6196C21.0912 37.0394 20.3193 37.6504 19.7097 38.4076L15.9882 42.2973L15.5806 42.7222C15.0965 43.1344 14.4813 43.3611 13.8451 43.3615C13.3104 43.362 12.7874 43.2042 12.3424 42.9081C11.8973 42.6119 11.5502 42.1907 11.3447 41.6976C11.1392 41.2045 11.0846 40.6616 11.1879 40.1376C11.2911 39.6135 11.5475 39.1317 11.9247 38.7531L18.2863 31.2856C20.0921 32.8853 22.4257 33.7628 24.8395 33.7496C27.2533 33.7364 29.5772 32.8335 31.3653 31.2141L37.4565 38.6757L37.8323 39.1363C38.1196 39.5727 38.2731 40.0834 38.2736 40.6056Z" fill="#FAEE39"/>
<path d="M43.1698 32.9493C43.6722 33.418 43.9771 34.0602 44.0226 34.7454C44.068 35.4305 43.8506 36.1072 43.4146 36.6381C42.9785 37.1689 42.3564 37.5141 41.6747 37.6034C40.9931 37.6927 40.3029 37.5194 39.7445 37.1189L39.3251 36.7555L32.0808 30.4932C33.6824 28.7062 34.5709 26.3938 34.5775 23.9954C34.5841 21.5971 33.7084 19.2799 32.1166 17.4841L39.4384 11.2019L39.4583 11.184L39.7207 10.9577C40.2672 10.5569 40.9445 10.3757 41.6185 10.4499C42.2925 10.5241 42.914 10.8484 43.36 11.3585C43.8059 11.8686 44.0439 12.5273 44.0267 13.2043C44.0096 13.8813 43.7385 14.5272 43.2672 15.0141L43.2374 15.0439L39.4901 18.8978C38.7812 19.467 38.1998 20.1783 37.7832 20.9859C37.3667 21.7935 37.1244 22.6793 37.072 23.5862C37.0195 24.4931 37.1581 25.4009 37.4787 26.251C37.7993 27.1011 38.2949 27.8746 38.9334 28.5216L38.9652 28.5534L43.1698 32.9493Z" fill="#FAEE39"/>
<path d="M38.3391 7.38777C38.341 8.04573 38.1012 8.68152 37.6652 9.17474L37.6354 9.20849L31.3056 16.6681C29.5201 15.0743 27.2119 14.1892 24.8173 14.1801C22.4227 14.1709 20.1077 15.0384 18.3101 16.6185L11.9902 9.35344C11.7298 9.0939 11.5252 8.78405 11.3887 8.44284C11.2523 8.10162 11.187 7.7362 11.1968 7.36891C11.2065 7.00162 11.2912 6.64017 11.4456 6.30667C11.5999 5.97317 11.8208 5.67461 12.0946 5.42925C12.3684 5.18388 12.6895 4.99686 13.0381 4.87963C13.3868 4.76239 13.7557 4.71739 14.1223 4.74739C14.489 4.77738 14.8457 4.88174 15.1706 5.05408C15.4955 5.22642 15.7818 5.46312 16.012 5.74972L19.7037 9.51029C20.2994 10.2497 21.0501 10.8497 21.9029 11.2681C22.7558 11.6865 23.6902 11.9131 24.6402 11.9321C25.5902 11.951 26.5328 11.7618 27.4017 11.3776C28.2707 10.9935 29.0447 10.4239 29.6695 9.70884L29.6894 9.687L33.6077 5.57896L33.7449 5.436C34.1266 5.0666 34.6089 4.81769 35.1315 4.72036C35.654 4.62303 36.1937 4.68159 36.6831 4.88873C37.1726 5.09586 37.5901 5.4424 37.8835 5.88507C38.177 6.32775 38.3333 6.84694 38.3331 7.37784L38.3391 7.38777Z" fill="#FAEE39"/>
<path d="M14.9841 23.9609C14.9802 26.33 15.841 28.6192 17.4054 30.4L10.0678 36.8132L9.72781 37.111C9.20021 37.5011 8.54862 37.6863 7.89443 37.6321C7.24025 37.5779 6.6281 37.2881 6.17203 36.8166C5.71596 36.345 5.44708 35.724 5.41549 35.0691C5.3839 34.4143 5.59175 33.7703 6.00032 33.2571L6.42774 32.8263L10.0061 29.2325C10.8282 28.642 11.5009 27.8678 11.9705 26.9718C12.4402 26.0757 12.6938 25.0825 12.7111 24.0713C12.7285 23.06 12.5092 22.0587 12.0706 21.1471C11.6321 20.2355 10.9864 19.4388 10.185 18.8204L6.40786 15.1909L6.38202 15.1671C6.11443 14.9336 5.8955 14.6497 5.73774 14.3317C5.57998 14.0137 5.48648 13.6678 5.46257 13.3137C5.43867 12.9596 5.48483 12.6043 5.59841 12.268C5.712 11.9318 5.89079 11.6211 6.12457 11.3539C6.59672 10.8141 7.26422 10.4838 7.98023 10.4356C8.33475 10.4117 8.69052 10.4578 9.02721 10.5712C9.3639 10.6847 9.67492 10.8632 9.94251 11.0967L10.0002 11.1464L17.4591 17.4623C15.8621 19.2509 14.981 21.5645 14.9841 23.9609Z" fill="#FAEE39"/>
</mask>
<g mask="url(#mask0_69_114)">
<rect x="0.746094" y="0.0195312" width="47.8828" height="47.8828" fill="url(#paint0_linear_69_114)"/>
</g>
</g>
<defs>
<linearGradient id="paint0_linear_69_114" x1="24.6875" y1="0.0195312" x2="24.6875" y2="47.9023" gradientUnits="userSpaceOnUse">
<stop stop-color="#FFD600"/>
<stop offset="1" stop-color="#00FF38"/>
</linearGradient>
<clipPath id="clip0_69_114">
<rect width="47.8828" height="47.8829" fill="white" transform="translate(0.746094 0.0195312)"/>
</clipPath>
</defs>
</svg>
