<svg width="16" height="16" viewBox="0 0 16 16" fill="none" xmlns="http://www.w3.org/2000/svg">
<path d="M13.696 3.00613C12.7254 2.53988 11.6916 2.19632 10.6026 2C10.4684 2.2454 10.3106 2.58078 10.208 2.85071C9.05587 2.67076 7.91161 2.67076 6.78314 2.85071C6.67266 2.58078 6.51483 2.2454 6.38067 2C5.29165 2.19632 4.25787 2.53988 3.28722 3.00613C1.33015 6.06543 0.801419 9.05114 1.06184 11.9877C2.36393 12.9939 3.61867 13.5992 4.85762 14C5.16539 13.5665 5.4337 13.1002 5.67044 12.6176C5.22063 12.4458 4.79449 12.225 4.39203 11.9714C4.50251 11.8896 4.6051 11.7996 4.70768 11.7178C7.1777 12.9121 9.8529 12.9121 12.2914 11.7178C12.3939 11.8078 12.4965 11.8896 12.607 11.9714C12.2046 12.225 11.7705 12.4376 11.3286 12.6176C11.5653 13.1002 11.8337 13.5665 12.1414 14C13.3804 13.5992 14.643 12.9939 15.9372 11.9877C16.245 8.5767 15.4085 5.62371 13.7118 3.00613H13.696ZM6.00188 10.1881C5.26009 10.1881 4.65245 9.47649 4.65245 8.60124C4.65245 7.72598 5.2443 7.01433 6.00188 7.01433C6.75946 7.01433 7.3592 7.72598 7.35131 8.60124C7.35131 9.46831 6.75946 10.1881 6.00188 10.1881ZM10.9814 10.1881C10.2396 10.1881 9.63194 9.47649 9.63194 8.60124C9.63194 7.72598 10.2238 7.01433 10.9814 7.01433C11.739 7.01433 12.3387 7.72598 12.3308 8.60124C12.3308 9.46831 11.739 10.1881 10.9814 10.1881Z" fill="#A144FF"/>
</svg>
