<svg width="17" height="16" viewBox="0 0 17 16" fill="none" xmlns="http://www.w3.org/2000/svg">
<g clip-path="url(#clip0_49_2933)">
<path fill-rule="evenodd" clip-rule="evenodd" d="M5.07887 1C3.87704 1 2.79024 1.30545 2.00141 2.0503C1.2051 2.80223 0.799805 3.91885 0.799805 5.35135V10.6486C0.799805 12.0812 1.2051 13.1978 2.00141 13.9497C2.79024 14.6946 3.87704 15 5.07887 15H12.5207C13.7226 15 14.8094 14.6946 15.5982 13.9497C16.3945 13.1978 16.7998 12.0812 16.7998 10.6486V5.35135C16.7998 3.91885 16.3945 2.80223 15.5982 2.0503C14.8094 1.30545 13.7226 1 12.5207 1H5.07887ZM14.1792 5.24715C14.423 5.05549 14.468 4.69904 14.2795 4.45101C14.091 4.20297 13.7405 4.15727 13.4966 4.34893L9.36851 7.59256C9.03355 7.85584 8.56598 7.85584 8.23095 7.59256L4.10295 4.34893C3.85903 4.15727 3.50851 4.20297 3.32003 4.45101C3.13155 4.69904 3.17649 5.05549 3.42041 5.24715L7.54846 8.49083C8.2855 9.0699 9.31404 9.0699 10.0511 8.49083L14.1792 5.24715Z" fill="#8C1FFF" fill-opacity="0.8"/>
</g>
<defs>
<clipPath id="clip0_49_2933">
<rect width="16" height="16" fill="white" transform="translate(0.800049)"/>
</clipPath>
</defs>
</svg>
