<svg width="17" height="16" viewBox="0 0 17 16" fill="none" xmlns="http://www.w3.org/2000/svg">
<g clip-path="url(#clip0_49_2929)">
<path d="M8.60009 0C4.20009 0 0.600098 3.60642 0.600098 8.0482C0.600098 12.0643 3.52809 15.3976 7.35209 16V10.3775H5.32009V8.0482H7.35209V6.27309C7.35209 4.25702 8.54409 3.14859 10.3761 3.14859C11.2481 3.14859 12.1601 3.3012 12.1601 3.3012V5.28514H11.1521C10.1601 5.28514 9.84809 5.90361 9.84809 6.53816V8.0482H12.0721L11.7121 10.3775H9.84809V16C11.7332 15.701 13.4498 14.7353 14.688 13.2771C15.9262 11.819 16.6044 9.96434 16.6001 8.0482C16.6001 3.60642 13.0001 0 8.60009 0Z" fill="#8C1FFF" fill-opacity="0.8"/>
</g>
<defs>
<clipPath id="clip0_49_2929">
<rect width="16" height="16" fill="white" transform="translate(0.600098)"/>
</clipPath>
</defs>
</svg>
