<svg width="51" height="49" viewBox="0 0 51 49" fill="none" xmlns="http://www.w3.org/2000/svg">
<mask id="mask0_69_129" style="mask-type:alpha" maskUnits="userSpaceOnUse" x="2" y="7" width="47" height="35">
<path d="M29.2323 37.3819C29.2323 38.1418 29.0069 38.8846 28.5848 39.5164C28.1626 40.1483 27.5625 40.6407 26.8605 40.9315C26.1584 41.2223 25.3859 41.2984 24.6406 41.1501C23.8953 41.0019 23.2107 40.636 22.6734 40.0986C22.1361 39.5613 21.7702 38.8767 21.6219 38.1314C21.4737 37.3861 21.5498 36.6136 21.8406 35.9116C22.1314 35.2095 22.6238 34.6095 23.2556 34.1873C23.8875 33.7651 24.6303 33.5398 25.3902 33.5398C25.8948 33.5395 26.3945 33.6388 26.8608 33.8317C27.327 34.0247 27.7507 34.3077 28.1075 34.6646C28.4643 35.0214 28.7473 35.445 28.9403 35.9113C29.1333 36.3775 29.2325 36.8773 29.2323 37.3819Z" fill="#FAEE39"/>
<path d="M48.1639 20.2932C48.1629 21.4192 47.715 22.4987 46.9187 23.2947C46.1223 24.0907 45.0426 24.5381 43.9166 24.5386H43.7101H43.5993L43.4081 24.5214C43.2422 24.5017 43.0775 24.4724 42.915 24.4335L42.8309 24.4125L42.7372 24.3857L42.6646 24.3647L42.5652 24.3322L42.4333 24.2863L42.3358 24.25L42.158 24.1735C42.1045 24.1506 42.051 24.1238 41.9975 24.0971L41.9707 24.0837C41.9172 24.055 41.8637 24.0282 41.812 23.9977C41.7604 23.9671 41.7012 23.9346 41.6496 23.9002C41.598 23.8658 41.5425 23.8314 41.4909 23.795C41.3858 23.7224 41.2826 23.644 41.1851 23.5618L41.1124 23.4988C41.0895 23.4777 41.0647 23.4586 41.0417 23.4357C40.992 23.3803 40.9423 23.3229 40.8907 23.2675L40.82 23.1929L40.7321 23.0954L40.604 22.9616L40.5887 22.9444L40.5677 22.9234C40.4472 22.7992 40.3268 22.6749 40.2045 22.5526C40.0821 22.4302 39.9598 22.3117 39.8337 22.1913L39.6425 22.0135C39.5794 21.9543 39.5144 21.895 39.4514 21.8396C39.3883 21.7842 39.3233 21.723 39.2602 21.6676L39.0691 21.4955C39.0041 21.4382 38.9391 21.3827 38.8779 21.3292L38.6772 21.1629C38.6122 21.1075 38.5434 21.0521 38.4765 21.0004C38.4096 20.9488 38.3408 20.8915 38.272 20.838C38.0674 20.6793 37.8591 20.5226 37.6488 20.3716L37.4367 20.2206L37.2226 20.0734C37.1518 20.0237 37.0792 19.9759 37.0066 19.9281L36.7906 19.7847L36.5708 19.6452C36.4962 19.5974 36.4236 19.5515 36.349 19.5076C36.2745 19.4636 36.1999 19.4158 36.1254 19.3738C35.9763 19.2839 35.8253 19.196 35.6743 19.11C35.5233 19.024 35.3684 18.9418 35.2136 18.8596L34.9823 18.7392C34.8275 18.6589 34.6707 18.5824 34.514 18.506L34.233 18.3722L33.8048 18.181C33.6424 18.1103 33.478 18.0415 33.3136 17.9746C33.0823 17.8809 32.851 17.7834 32.6178 17.7051L32.3005 17.5923L32.0749 17.5158L31.792 17.4222L31.5684 17.3533C31.4824 17.3266 31.3983 17.2998 31.3142 17.2769L31.058 17.2023L30.649 17.0934L30.5228 17.0609L30.282 17.0016L30.0201 16.9424L29.7123 16.8736L29.4925 16.8315L29.2364 16.7799L29.0663 16.7493L28.8598 16.7149L28.5999 16.6748L28.338 16.6365C28.0971 16.6021 27.8563 16.5715 27.6135 16.5467L27.4224 16.5276C27.1987 16.5065 26.9732 16.4893 26.7476 16.4741L26.48 16.4588C26.2889 16.4492 26.0824 16.4416 25.8817 16.4377C25.7231 16.4377 25.5606 16.4377 25.4 16.4377C22.5868 16.434 19.8017 16.9981 17.2116 18.0961C14.6215 19.1941 12.2796 20.8034 10.3261 22.8278C10.1082 23.0496 9.8979 23.2789 9.69146 23.5121C8.90652 24.2482 7.87076 24.6578 6.79467 24.6577C5.71859 24.6576 4.68293 24.2477 3.89819 23.5114C3.11344 22.7751 2.63851 21.7676 2.5699 20.6937C2.50129 19.6198 2.84416 18.5601 3.52883 17.7299C3.71998 17.5177 3.91113 17.3113 4.10228 17.1068C6.8315 14.2412 10.1112 11.9563 13.7448 10.3889C17.3785 8.8215 21.2911 8.00393 25.2484 7.98519C29.2056 7.96645 33.1258 8.74692 36.7741 10.2798C40.4224 11.8127 43.7236 14.0665 46.4799 16.9061C46.5774 17.0035 46.671 17.0972 46.7647 17.2023C46.9214 17.3667 47.0763 17.5349 47.2273 17.7051C47.3209 17.8083 47.4184 17.9115 47.5006 18.0147C47.9354 18.695 48.1656 19.4859 48.1639 20.2932Z" fill="#FAEE39"/>
<path d="M38.7212 29.5583C38.7211 30.3609 38.4902 31.1466 38.0561 31.8217C37.622 32.4968 37.003 33.0329 36.2728 33.366C35.5426 33.6992 34.732 33.8154 33.9376 33.7009C33.1431 33.5863 32.3984 33.2458 31.7921 32.7199C31.5494 32.3842 31.2796 32.069 30.9855 31.7775C30.2455 31.0381 29.3664 30.4526 28.3989 30.0551C27.4313 29.6575 26.3946 29.4556 25.3486 29.4611C24.3025 29.4666 23.268 29.6794 22.3047 30.0872C21.3414 30.4949 20.4684 31.0896 19.7364 31.8367C19.4981 32.0767 19.2759 32.3321 19.0712 32.6013C18.3257 33.2747 17.3625 33.657 16.3581 33.6781C15.3537 33.6992 14.3753 33.3577 13.6021 32.7162C12.829 32.0747 12.3129 31.1762 12.1483 30.1851C11.9837 29.1941 12.1816 28.1769 12.7059 27.3199C12.985 26.9657 13.2794 26.6248 13.589 26.2973C15.1115 24.6761 16.9516 23.386 18.9947 22.5075C21.0378 21.629 23.24 21.1809 25.464 21.1911C27.6879 21.2013 29.8859 21.6697 31.9208 22.5669C33.9557 23.4642 35.784 24.7711 37.2914 26.4062C37.5629 26.7006 37.8247 27.0064 38.0732 27.3199C38.4976 27.9893 38.7224 28.7657 38.7212 29.5583Z" fill="#FAEE39"/>
</mask>
<g mask="url(#mask0_69_129)">
<rect x="0.28125" y="0.28125" width="50.543" height="47.8828" fill="url(#paint0_linear_69_129)"/>
</g>
<defs>
<linearGradient id="paint0_linear_69_129" x1="25.5527" y1="0.28125" x2="25.5527" y2="48.1641" gradientUnits="userSpaceOnUse">
<stop offset="0.115" stop-color="#00FFFF"/>
<stop offset="1" stop-color="#108CFF"/>
</linearGradient>
</defs>
</svg>
