<svg width="17" height="16" viewBox="0 0 17 16" fill="none" xmlns="http://www.w3.org/2000/svg">
<path fill-rule="evenodd" clip-rule="evenodd" d="M8.3999 12C10.609 12 12.3999 10.2091 12.3999 8C12.3999 5.79086 10.609 4 8.3999 4C6.19076 4 4.3999 5.79086 4.3999 8C4.3999 10.2091 6.19076 12 8.3999 12ZM8.3999 10.6667C9.87264 10.6667 11.0666 9.47273 11.0666 8C11.0666 6.52724 9.87264 5.33333 8.3999 5.33333C6.92714 5.33333 5.73324 6.52724 5.73324 8C5.73324 9.47273 6.92714 10.6667 8.3999 10.6667Z" fill="#8C1FFF" fill-opacity="0.8"/>
<path d="M12.3998 3.3335C12.0316 3.3335 11.7332 3.63198 11.7332 4.00016C11.7332 4.36835 12.0316 4.66683 12.3998 4.66683C12.768 4.66683 13.0665 4.36835 13.0665 4.00016C13.0665 3.63198 12.768 3.3335 12.3998 3.3335Z" fill="#8C1FFF" fill-opacity="0.8"/>
<path fill-rule="evenodd" clip-rule="evenodd" d="M1.50262 2.85054C1.06665 3.70619 1.06665 4.8263 1.06665 7.0665V8.93317C1.06665 11.1734 1.06665 12.2935 1.50262 13.1491C1.88612 13.9018 2.49804 14.5137 3.25069 14.8972C4.10634 15.3332 5.22644 15.3332 7.46665 15.3332H9.33332C11.5735 15.3332 12.6937 15.3332 13.5493 14.8972C14.3019 14.5137 14.9139 13.9018 15.2973 13.1491C15.7333 12.2935 15.7333 11.1734 15.7333 8.93317V7.0665C15.7333 4.8263 15.7333 3.70619 15.2973 2.85054C14.9139 2.09789 14.3019 1.48597 13.5493 1.10248C12.6937 0.666504 11.5735 0.666504 9.33332 0.666504H7.46665C5.22644 0.666504 4.10634 0.666504 3.25069 1.10248C2.49804 1.48597 1.88612 2.09789 1.50262 2.85054ZM9.33332 1.99984H7.46665C6.32454 1.99984 5.54815 2.00088 4.94804 2.0499C4.36348 2.09766 4.06454 2.18423 3.85601 2.29048C3.35424 2.54615 2.9463 2.9541 2.69063 3.45586C2.58438 3.6644 2.49781 3.96333 2.45005 4.54789C2.40102 5.148 2.39998 5.9244 2.39998 7.0665V8.93317C2.39998 10.0753 2.40102 10.8516 2.45005 11.4518C2.49781 12.0364 2.58438 12.3353 2.69063 12.5438C2.9463 13.0456 3.35424 13.4535 3.85601 13.7092C4.06454 13.8154 4.36348 13.902 4.94804 13.9498C5.54815 13.9988 6.32454 13.9998 7.46665 13.9998H9.33332C10.4755 13.9998 11.2518 13.9988 11.8519 13.9498C12.4365 13.902 12.7355 13.8154 12.944 13.7092C13.4457 13.4535 13.8537 13.0456 14.1093 12.5438C14.2156 12.3353 14.3022 12.0364 14.3499 11.4518C14.3989 10.8516 14.4 10.0753 14.4 8.93317V7.0665C14.4 5.9244 14.3989 5.148 14.3499 4.54789C14.3022 3.96333 14.2156 3.6644 14.1093 3.45586C13.8537 2.9541 13.4457 2.54615 12.944 2.29048C12.7355 2.18423 12.4365 2.09766 11.8519 2.0499C11.2518 2.00088 10.4755 1.99984 9.33332 1.99984Z" fill="#8C1FFF" fill-opacity="0.8"/>
</svg>
