<svg width="49" height="49" viewBox="0 0 49 49" fill="none" xmlns="http://www.w3.org/2000/svg">
<mask id="mask0_69_143" style="mask-type:alpha" maskUnits="userSpaceOnUse" x="4" y="5" width="43" height="40">
<path fill-rule="evenodd" clip-rule="evenodd" d="M4.52041 11.8243C4.48429 10.4704 5.56082 9.38462 6.90828 9.24798C12.8178 8.64874 17.5991 7.28052 20.9138 5.97537C22.8624 5.20813 25.2934 6.62171 25.2934 8.71592V41.6291C25.2934 43.3396 23.6759 44.5982 22.0929 43.9504C8.56756 38.416 4.78529 21.7501 4.52041 11.8243ZM46.0664 11.8243C46.1026 10.4704 45.026 9.38462 43.6786 9.24798C37.769 8.64874 32.9878 7.28052 29.673 5.97537C27.7244 5.20813 25.2935 6.62171 25.2935 8.71592V41.6291C25.2935 43.3396 26.9109 44.5982 28.494 43.9504C42.0193 38.416 45.8015 21.7501 46.0664 11.8243Z" fill="#FAEE39"/>
</mask>
<g mask="url(#mask0_69_143)">
<rect x="0.972656" y="0.28125" width="47.8828" height="47.8828" fill="url(#paint0_linear_69_143)"/>
</g>
<path d="M27.5425 31.9867C27.5425 32.4626 27.4014 32.9279 27.1369 33.3236C26.8725 33.7193 26.4967 34.0278 26.057 34.2099C25.6173 34.392 25.1334 34.4397 24.6667 34.3468C24.1999 34.254 23.7711 34.0248 23.4345 33.6883C23.098 33.3517 22.8688 32.923 22.776 32.4562C22.6831 31.9894 22.7308 31.5055 22.9129 31.0658C23.095 30.6261 23.4035 30.2503 23.7992 29.9859C24.1949 29.7215 24.6602 29.5803 25.1361 29.5803C25.4522 29.5802 25.7652 29.6423 26.0572 29.7632C26.3492 29.8841 26.6145 30.0613 26.838 30.2848C27.0615 30.5083 27.2388 30.7736 27.3596 31.0656C27.4805 31.3577 27.5426 31.6706 27.5425 31.9867Z" fill="white"/>
<path d="M39.3995 21.2837C39.3989 21.9889 39.1184 22.665 38.6196 23.1636C38.1208 23.6621 37.4446 23.9423 36.7393 23.9427H36.61H36.5406L36.4209 23.9319C36.3169 23.9196 36.2138 23.9012 36.112 23.8768L36.0593 23.8636L36.0007 23.8469L35.9552 23.8337L35.8929 23.8134L35.8103 23.7846L35.7493 23.7619L35.6379 23.714C35.6044 23.6996 35.5709 23.6829 35.5373 23.6661L35.5206 23.6577C35.4871 23.6398 35.4535 23.623 35.4212 23.6039C35.3889 23.5847 35.3518 23.5643 35.3195 23.5428C35.2871 23.5212 35.2524 23.4997 35.2201 23.477C35.1542 23.4315 35.0896 23.3824 35.0285 23.3309L34.983 23.2914C34.9687 23.2782 34.9531 23.2662 34.9387 23.2519C34.9076 23.2172 34.8765 23.1812 34.8442 23.1465L34.7999 23.0998L34.7448 23.0388L34.6646 22.955L34.655 22.9442L34.6418 22.931C34.5664 22.8532 34.491 22.7754 34.4144 22.6988C34.3377 22.6221 34.2611 22.5479 34.1821 22.4725L34.0624 22.3612C34.0229 22.324 33.9822 22.2869 33.9427 22.2522C33.9032 22.2175 33.8625 22.1792 33.823 22.1445L33.7032 22.0367C33.6625 22.0008 33.6218 21.9661 33.5835 21.9326L33.4578 21.8284C33.4171 21.7937 33.374 21.759 33.3321 21.7266C33.2902 21.6943 33.2471 21.6584 33.204 21.6249C33.0759 21.5255 32.9454 21.4273 32.8137 21.3328L32.6808 21.2382L32.5467 21.146C32.5024 21.1149 32.4569 21.0849 32.4114 21.055L32.2762 20.9652L32.1385 20.8778C32.0918 20.8479 32.0463 20.8192 31.9996 20.7916C31.9529 20.7641 31.9062 20.7342 31.8595 20.7078C31.7662 20.6516 31.6716 20.5965 31.577 20.5426C31.4824 20.4887 31.3854 20.4373 31.2885 20.3858L31.1436 20.3103C31.0466 20.2601 30.9485 20.2122 30.8503 20.1643L30.6743 20.0805L30.4061 19.9608C30.3044 19.9165 30.2014 19.8734 30.0985 19.8315C29.9536 19.7728 29.8087 19.7117 29.6627 19.6627L29.4639 19.592L29.3227 19.5441L29.1455 19.4855L29.0054 19.4424C28.9515 19.4256 28.8989 19.4089 28.8462 19.3945L28.6858 19.3478L28.4296 19.2796L28.3505 19.2592L28.1997 19.2221L28.0357 19.185L27.8429 19.1419L27.7052 19.1155L27.5448 19.0832L27.4383 19.0641L27.309 19.0425L27.1462 19.0174L26.9821 18.9934C26.8313 18.9719 26.6804 18.9527 26.5284 18.9372L26.4087 18.9252C26.2686 18.912 26.1273 18.9012 25.9861 18.8917L25.8185 18.8821C25.6987 18.8761 25.5694 18.8713 25.4437 18.8689C25.3444 18.8689 25.2426 18.8689 25.142 18.8689C23.38 18.8666 21.6357 19.2199 20.0135 19.9076C18.3912 20.5953 16.9244 21.6032 15.7009 22.8712C15.5644 23.01 15.4327 23.1537 15.3034 23.2998C14.8118 23.7608 14.1631 24.0173 13.4891 24.0173C12.8151 24.0172 12.1665 23.7605 11.675 23.2993C11.1835 22.8381 10.886 22.2071 10.843 21.5345C10.8001 20.8619 11.0148 20.1982 11.4436 19.6782C11.5634 19.5453 11.6831 19.416 11.8028 19.2879C13.5122 17.4932 15.5663 16.0621 17.8421 15.0804C20.118 14.0987 22.5686 13.5867 25.047 13.5749C27.5255 13.5632 29.9809 14.052 32.2659 15.0121C34.5509 15.9722 36.6185 17.3838 38.3448 19.1622C38.4058 19.2233 38.4645 19.282 38.5232 19.3478C38.6213 19.4508 38.7183 19.5561 38.8129 19.6627C38.8716 19.7273 38.9326 19.792 38.9841 19.8566C39.2564 20.2827 39.4006 20.778 39.3995 21.2837Z" fill="white"/>
<path d="M33.4852 27.0863C33.4851 27.589 33.3405 28.0811 33.0686 28.504C32.7968 28.9268 32.409 29.2626 31.9517 29.4712C31.4943 29.6799 30.9866 29.7527 30.4891 29.6809C29.9915 29.6092 29.5251 29.3959 29.1453 29.0665C28.9934 28.8563 28.8244 28.6589 28.6401 28.4763C28.1767 28.0132 27.6261 27.6465 27.0201 27.3975C26.4141 27.1485 25.7648 27.022 25.1096 27.0255C24.4545 27.0289 23.8065 27.1622 23.2032 27.4176C22.5998 27.673 22.0531 28.0454 21.5946 28.5134C21.4453 28.6637 21.3062 28.8237 21.178 28.9923C20.711 29.4141 20.1078 29.6535 19.4787 29.6667C18.8496 29.6799 18.2368 29.466 17.7526 29.0642C17.2684 28.6625 16.9451 28.0997 16.842 27.4789C16.7389 26.8582 16.8629 26.2212 17.1913 25.6844C17.3661 25.4625 17.5504 25.249 17.7444 25.0439C18.6979 24.0286 19.8505 23.2205 21.1301 22.6703C22.4097 22.1201 23.789 21.8394 25.1819 21.8458C26.5748 21.8522 27.9514 22.1455 29.226 22.7075C30.5005 23.2695 31.6455 24.0881 32.5897 25.1122C32.7597 25.2965 32.9237 25.4881 33.0794 25.6844C33.3451 26.1037 33.4859 26.59 33.4852 27.0863Z" fill="white"/>
<defs>
<linearGradient id="paint0_linear_69_143" x1="24.9141" y1="0.28125" x2="24.9141" y2="48.1641" gradientUnits="userSpaceOnUse">
<stop stop-color="#CC00FF"/>
<stop offset="1" stop-color="#FF00A8"/>
</linearGradient>
</defs>
</svg>
