<svg width="446" height="374" viewBox="0 0 446 374" fill="none" xmlns="http://www.w3.org/2000/svg">
<path d="M150.581 242.115L129.986 249.802L122.195 229.12L142.79 221.433L150.581 242.115Z" fill="#3B3A47"/>
<path d="M142.79 221.433L122.195 229.12L73.3038 84.6814C72.367 81.9079 73.9144 78.8337 76.746 77.7762C79.6301 76.703 82.8146 77.9926 83.909 80.7193L142.737 221.448L142.79 221.433Z" fill="#42414D"/>
<path d="M296.305 231.759L317.529 236.417L323.185 214.798L302.013 210.125L296.305 231.759Z" fill="#3B3A47"/>
<path d="M302.013 210.125L323.253 214.833L357.421 64.5083C358.06 61.649 356.246 58.8089 353.307 58.1547C350.368 57.5006 347.332 59.2182 346.468 62.0897L302.028 210.175L302.013 210.125Z" fill="#42414D"/>
<path d="M355.324 247.005L360.587 353.272C360.742 356.495 360.163 359.555 359.006 362.404C355.831 370.211 348.191 376.073 339.007 376.726L129.319 391.609C120.135 392.263 111.987 387.541 108.056 380.261C106.646 377.628 105.755 374.623 105.599 371.4L100.336 265.133C99.743 253.104 109.385 242.616 121.932 241.729L331.604 226.795C344.098 225.924 354.731 234.976 355.324 247.005Z" fill="white"/>
<path d="M355.324 247.005L360.587 353.273C361.181 365.302 351.538 375.789 339.044 376.66L177.029 388.196C203.028 369.808 224.694 345.294 237.639 317.209C241.846 308.061 245.101 298.596 247.179 288.826C249.783 276.394 251.002 262.956 248.077 250.583C246.669 244.68 244.158 239.104 241.219 233.819C241.174 233.669 241.062 233.484 240.868 233.215L331.589 226.746C344.083 225.874 354.716 234.926 355.309 246.955L355.324 247.005Z" fill="#CBCAC9"/>
<path d="M359.733 335.927L360.587 353.272C360.742 356.496 360.163 359.555 359.006 362.404L108.056 380.261C106.646 377.628 105.755 374.623 105.599 371.4L104.745 354.055L359.733 335.927Z" fill="#9B9B9B"/>
<path d="M386.857 271L389.52 324.914C390.29 340.433 377.84 353.986 361.707 355.12L104.655 373.424C88.5222 374.557 74.7838 362.939 73.9988 347.371L71.3359 293.456C70.5657 277.938 83.0159 264.384 99.1491 263.251L356.268 244.981C372.401 243.848 386.14 255.466 386.925 271.035L386.857 271Z" fill="#BB23F1"/>
<path d="M386.857 271L389.52 324.915C390.291 340.433 377.84 353.986 361.707 355.12L202.828 366.434C233.329 335.65 253.989 294.435 248.843 252.59L356.253 244.931C372.387 243.798 386.125 255.416 386.91 270.984L386.857 271Z" fill="#873BA6"/>
<path d="M317.238 395.495C308.728 396.111 301.53 389.964 301.112 381.806L301.022 379.381L331.765 377.184L331.856 379.609C332.273 387.767 325.694 394.894 317.238 395.495Z" fill="#42414D"/>
<path d="M198.879 276.94L111.677 283.129C109.216 283.314 107.076 281.496 106.948 279.137C106.805 276.727 108.769 274.674 111.231 274.489L198.433 268.3C200.894 268.115 203.034 269.933 203.162 272.292C203.305 274.702 201.34 276.755 198.879 276.94Z" fill="white"/>
<path d="M255.27 272.914L219.259 275.474C216.798 275.659 214.658 273.841 214.53 271.482C214.387 269.072 216.352 267.019 218.813 266.834L254.824 264.274C257.285 264.089 259.425 265.906 259.553 268.266C259.696 270.675 257.731 272.729 255.27 272.914Z" fill="white"/>
<path d="M311.661 268.888L275.65 271.448C273.189 271.633 271.049 269.815 270.921 267.456C270.779 265.046 272.743 262.993 275.204 262.808L311.215 260.248C313.676 260.063 315.816 261.88 315.944 264.24C316.087 266.649 314.122 268.703 311.661 268.888Z" fill="white"/>
<path d="M135.673 326.839C135.371 320.831 130.071 316.321 123.833 316.768C117.596 317.214 112.785 322.446 113.086 328.455C113.388 334.464 118.689 338.973 124.926 338.527C131.163 338.081 135.975 332.848 135.673 326.839Z" fill="white"/>
<path d="M180.135 323.672C179.833 317.663 174.532 313.154 168.295 313.6C162.058 314.046 157.246 319.279 157.548 325.288C157.85 331.296 163.15 335.806 169.388 335.36C175.625 334.914 180.436 329.681 180.135 323.672Z" fill="white"/>
<path d="M224.544 320.52C224.242 314.512 218.941 310.002 212.704 310.449C206.467 310.895 201.655 316.127 201.957 322.136C202.259 328.145 207.559 332.654 213.797 332.208C220.034 331.762 224.845 326.529 224.544 320.52Z" fill="white"/>
<path d="M357.756 311.056C357.454 305.047 352.153 300.538 345.916 300.984C339.679 301.43 334.867 306.663 335.169 312.672C335.471 318.68 340.772 323.19 347.009 322.743C353.246 322.297 358.058 317.065 357.756 311.056Z" fill="#00FF51"/>
</svg>
