<svg width="534" height="366" viewBox="0 0 534 366" fill="none" xmlns="http://www.w3.org/2000/svg">
<g filter="url(#filter0_f_87_2)">
<path d="M301.574 189.145L283.144 194.2L277.864 174.756L296.28 169.702L301.574 189.145Z" fill="#3B3A47"/>
<path d="M296.278 169.689L277.847 174.731L245.86 39.4325C245.564 38.1832 245.764 36.8673 246.418 35.7625C247.073 34.6577 248.131 33.8503 249.369 33.5106C250.597 33.1859 251.904 33.3471 253.017 33.9607C254.129 34.5742 254.963 35.593 255.344 36.8051L296.278 169.689Z" fill="#42414D"/>
<path d="M428.743 193.163L446.81 199.361L453.31 180.301L435.24 174.089L428.743 193.163Z" fill="#3B3A47"/>
<path d="M435.24 174.089L453.377 180.291L493.846 47.2713C494.218 46.0436 494.101 44.7194 493.52 43.5759C492.938 42.4324 491.936 41.5584 490.724 41.1371C489.511 40.7261 488.185 40.8014 487.026 41.3471C485.867 41.8928 484.964 42.8664 484.507 44.0635L435.24 174.089Z" fill="#42414D"/>
<path d="M478.833 212.404L475.776 309.137C475.61 314.387 473.371 319.357 469.549 322.96C465.727 326.562 460.632 328.503 455.382 328.358L272.378 322.566C267.125 322.386 262.159 320.128 258.568 316.29C254.978 312.452 253.058 307.346 253.228 302.093L256.287 205.373C256.47 200.131 258.719 195.173 262.545 191.584C266.37 187.995 271.461 186.066 276.704 186.218L459.697 191.929C464.949 192.109 469.914 194.367 473.502 198.206C477.09 202.045 479.008 207.152 478.833 212.404Z" fill="white"/>
<path d="M478.833 212.404L475.776 309.137C475.618 314.389 473.381 319.364 469.557 322.968C465.733 326.572 460.634 328.511 455.382 328.358L313.984 323.886C337.883 309.602 358.472 289.417 371.687 265.197C376.019 257.31 379.468 248.969 381.973 240.327C385.121 229.288 387.139 217.265 385.485 205.785C384.596 200.311 382.994 194.977 380.721 189.919C380.702 189.784 380.594 189.606 380.475 189.347L459.672 191.85C462.282 191.936 464.848 192.536 467.225 193.617C469.602 194.697 471.742 196.237 473.522 198.146C475.303 200.056 476.688 202.299 477.6 204.745C478.511 207.192 478.93 209.795 478.833 212.404Z" fill="#CCCBCB"/>
<path d="M476.27 293.331L475.735 309.142C475.649 311.959 474.962 314.724 473.719 317.252L254.73 310.328C253.653 307.72 253.142 304.913 253.228 302.092L253.765 286.295L476.27 293.331Z" fill="#9D9D9D"/>
<path d="M504.509 237.058L502.958 286.151C502.858 289.509 502.097 292.814 500.719 295.877C499.341 298.941 497.373 301.703 494.927 304.005C492.482 306.308 489.607 308.106 486.466 309.297C483.325 310.488 479.98 311.049 476.623 310.947L252.267 303.881C248.91 303.77 245.608 302.998 242.55 301.61C239.492 300.222 236.737 298.245 234.443 295.791C232.149 293.338 230.362 290.456 229.182 287.311C228.003 284.166 227.455 280.82 227.57 277.463L229.123 228.384C229.217 225.022 229.975 221.712 231.351 218.643C232.727 215.574 234.694 212.807 237.141 210.5C239.588 208.192 242.466 206.391 245.611 205.197C248.755 204.004 252.104 203.443 255.466 203.546L479.821 210.611C483.179 210.726 486.482 211.5 489.54 212.891C492.599 214.283 495.353 216.263 497.646 218.719C499.938 221.175 501.724 224.059 502.902 227.206C504.08 230.352 504.626 233.701 504.509 237.058Z" fill="#F26D22"/>
<path d="M504.508 237.058L502.958 286.152C502.858 289.509 502.097 292.814 500.719 295.877C499.341 298.941 497.373 301.703 494.927 304.005C492.482 306.308 489.606 308.106 486.466 309.297C483.325 310.488 479.98 311.049 476.623 310.947L337.967 306.573C366.657 281.474 387.504 246.054 386.081 207.672L479.825 210.638C486.601 210.87 493.008 213.783 497.637 218.738C502.266 223.692 504.737 230.282 504.508 237.058Z" fill="#D36210"/>
<path d="M288.681 338.767C285.123 338.645 281.758 337.116 279.326 334.515C276.893 331.914 275.593 328.454 275.709 324.895L275.782 322.666L302.632 323.511L302.558 325.726C302.508 327.495 302.109 329.236 301.384 330.851C300.658 332.465 299.621 333.92 298.332 335.132C297.042 336.344 295.526 337.289 293.869 337.913C292.213 338.537 290.45 338.827 288.681 338.767Z" fill="#42414D"/>
<path d="M435.131 343.397C431.569 343.276 428.202 341.745 425.769 339.141C423.336 336.537 422.037 333.073 422.157 329.511L422.231 327.296L449.055 328.144L448.98 330.36C448.928 332.125 448.528 333.864 447.804 335.475C447.079 337.086 446.045 338.539 444.758 339.75C443.472 340.96 441.96 341.906 440.308 342.532C438.656 343.158 436.896 343.452 435.131 343.397Z" fill="#42414D"/>
<path d="M340.963 225.102L264.84 222.705C263.796 222.67 262.808 222.222 262.094 221.459C261.38 220.697 260.997 219.682 261.03 218.637C261.045 218.121 261.161 217.612 261.372 217.14C261.584 216.668 261.887 216.243 262.264 215.889C262.641 215.535 263.084 215.259 263.568 215.078C264.052 214.896 264.567 214.812 265.084 214.83L341.207 217.227C341.725 217.242 342.234 217.36 342.706 217.573C343.178 217.786 343.603 218.091 343.957 218.469C344.311 218.846 344.587 219.291 344.769 219.776C344.951 220.26 345.035 220.777 345.017 221.294C344.981 222.336 344.535 223.321 343.775 224.034C343.016 224.748 342.005 225.131 340.963 225.102Z" fill="white"/>
<path d="M390.181 226.662L358.75 225.676C357.709 225.64 356.725 225.193 356.014 224.433C355.303 223.673 354.922 222.661 354.956 221.62C354.988 220.577 355.433 219.589 356.192 218.872C356.952 218.156 357.964 217.77 359.008 217.799L390.428 218.801C390.944 218.817 391.452 218.934 391.923 219.146C392.394 219.359 392.818 219.662 393.172 220.038C393.525 220.415 393.801 220.857 393.984 221.341C394.166 221.824 394.252 222.338 394.235 222.855C394.219 223.371 394.102 223.879 393.89 224.35C393.677 224.821 393.374 225.245 392.998 225.599C392.621 225.952 392.179 226.228 391.695 226.411C391.212 226.593 390.698 226.679 390.181 226.662Z" fill="white"/>
<path d="M439.44 228.217L408.02 227.215C407.503 227.2 406.993 227.082 406.521 226.869C406.049 226.656 405.624 226.352 405.27 225.974C404.916 225.596 404.64 225.151 404.459 224.667C404.277 224.182 404.193 223.666 404.211 223.148C404.227 222.632 404.344 222.124 404.557 221.653C404.769 221.182 405.072 220.758 405.448 220.404C405.825 220.05 406.267 219.774 406.751 219.592C407.234 219.409 407.748 219.324 408.265 219.341L439.71 220.325C440.752 220.363 441.736 220.813 442.448 221.576C443.159 222.338 443.54 223.351 443.506 224.394C443.49 224.912 443.372 225.422 443.16 225.894C442.947 226.367 442.643 226.793 442.265 227.148C441.888 227.503 441.444 227.78 440.959 227.964C440.474 228.147 439.958 228.233 439.44 228.217Z" fill="white"/>
<path d="M282.574 264.514C282.744 259.053 278.473 254.489 273.034 254.319C267.596 254.15 263.049 258.44 262.879 263.901C262.709 269.362 266.98 273.926 272.418 274.096C277.857 274.265 282.404 269.975 282.574 264.514Z" fill="white"/>
<path d="M321.322 265.739C321.492 260.278 317.221 255.714 311.782 255.544C306.344 255.375 301.797 259.665 301.627 265.126C301.457 270.587 305.728 275.151 311.167 275.32C316.605 275.49 321.152 271.2 321.322 265.739Z" fill="white"/>
<path d="M362.195 263.095C362.362 257.609 358.069 253.027 352.606 252.86C347.143 252.694 342.579 257.005 342.412 262.491C342.245 267.977 346.537 272.559 352 272.726C357.463 272.892 362.028 268.58 362.195 263.095Z" fill="white"/>
<path d="M476.312 270.622C476.482 265.161 472.211 260.597 466.772 260.427C461.334 260.258 456.787 264.548 456.617 270.009C456.447 275.47 460.718 280.034 466.157 280.204C471.595 280.373 476.142 276.083 476.312 270.622Z" fill="#0AFF33"/>
</g>
<path d="M135.143 263.735L118.108 272.397L109.021 254.413L126.043 245.756L135.143 263.735Z" fill="#3B3A47"/>
<path d="M126.038 245.743L108.999 254.392L50.4322 128.303C49.8899 127.139 49.8209 125.81 50.2396 124.596C50.6584 123.382 51.5322 122.378 52.6768 121.796C53.8148 121.23 55.1269 121.125 56.3403 121.502C57.5537 121.879 58.5751 122.71 59.1923 123.82L126.038 245.743Z" fill="#42414D"/>
<path d="M260.517 242.071L279.463 244.505L281.992 224.527L263.042 222.08L260.517 242.071Z" fill="#3B3A47"/>
<path d="M263.042 222.08L282.056 224.504L294.919 86.0606C295.037 84.783 294.656 83.5094 293.856 82.5065C293.055 81.5036 291.898 80.8491 290.626 80.6803C289.355 80.5221 288.072 80.8627 287.046 81.6305C286.02 82.3984 285.332 83.5338 285.126 84.7983L263.042 222.08Z" fill="#42414D"/>
<path d="M313.455 250.835L329.934 346.203C330.828 351.379 329.636 356.698 326.617 360.997C323.598 365.295 318.998 368.222 313.826 369.136L133.403 400.302C128.221 401.183 122.902 399.972 118.613 396.935C114.323 393.897 111.414 389.283 110.524 384.103L94.05 288.747C93.1733 283.575 94.3791 278.267 97.4038 273.981C100.429 269.695 105.026 266.781 110.193 265.874L290.589 234.631C295.77 233.75 301.088 234.962 305.376 238.001C309.663 241.039 312.569 245.655 313.455 250.835Z" fill="white"/>
<path d="M313.455 250.835L329.934 346.203C330.836 351.38 329.646 356.703 326.626 361.003C323.606 365.303 319.002 368.228 313.826 369.136L174.423 393.22C194.957 374.417 211.061 350.501 219.131 324.116C221.786 315.518 223.485 306.654 224.199 297.685C225.061 286.238 224.617 274.055 220.686 263.143C218.713 257.96 216.07 253.058 212.825 248.561C212.78 248.432 212.638 248.28 212.47 248.05L290.549 234.559C293.123 234.117 295.758 234.189 298.303 234.769C300.849 235.349 303.255 236.426 305.383 237.938C307.512 239.451 309.32 241.368 310.706 243.581C312.091 245.795 313.025 248.26 313.455 250.835Z" fill="#CCCBCB"/>
<path d="M327.236 330.622L329.895 346.217C330.378 348.993 330.261 351.839 329.553 354.566L113.652 391.867C112.073 389.529 111.007 386.883 110.524 384.103L107.869 368.52L327.236 330.622Z" fill="#9D9D9D"/>
<path d="M343.568 269.816L351.932 318.216C352.51 321.525 352.43 324.916 351.697 328.194C350.964 331.472 349.592 334.573 347.66 337.321C345.728 340.069 343.274 342.409 340.437 344.208C337.6 346.007 334.437 347.23 331.128 347.806L109.942 386.048C106.632 386.615 103.242 386.524 99.9669 385.78C96.6916 385.036 93.5952 383.653 90.8545 381.712C88.1139 379.77 85.7828 377.307 83.9946 374.464C82.2064 371.621 80.9961 368.454 80.4329 365.142L72.0736 316.755C71.4897 313.443 71.565 310.048 72.2951 306.765C73.0251 303.482 74.3957 300.376 76.3281 297.623C78.2606 294.87 80.717 292.526 83.5568 290.724C86.3966 288.922 89.5639 287.699 92.8774 287.123L314.063 248.88C317.375 248.316 320.766 248.41 324.042 249.157C327.317 249.904 330.414 251.289 333.154 253.234C335.894 255.178 338.224 257.643 340.011 260.489C341.798 263.334 343.007 266.503 343.568 269.816Z" fill="#A322F2"/>
<path d="M343.568 269.816L351.932 318.216C352.51 321.525 352.43 324.916 351.697 328.194C350.964 331.472 349.592 334.573 347.66 337.321C345.728 340.069 343.273 342.409 340.437 344.208C337.6 346.007 334.437 347.23 331.127 347.806L194.429 371.433C217.48 341.072 230.77 302.181 221.649 264.871L314.072 248.906C320.756 247.769 327.618 249.332 333.149 253.254C338.681 257.175 342.428 263.132 343.568 269.816Z" fill="#8317D7"/>
<path d="M297.017 387.944C293.504 388.542 289.897 387.72 286.99 385.659C284.083 383.598 282.113 380.467 281.513 376.954L281.141 374.77L307.586 370.201L307.959 372.385C308.263 374.126 308.221 375.909 307.836 377.633C307.451 379.357 306.73 380.988 305.713 382.433C304.697 383.878 303.406 385.109 301.914 386.054C300.422 387 298.758 387.642 297.017 387.944Z" fill="#42414D"/>
<path d="M180.964 291.026L105.917 304.002C104.887 304.178 103.829 303.938 102.976 303.335C102.123 302.732 101.544 301.815 101.367 300.785C101.276 300.276 101.288 299.754 101.4 299.25C101.513 298.745 101.724 298.268 102.022 297.845C102.32 297.422 102.698 297.063 103.136 296.787C103.573 296.512 104.061 296.326 104.571 296.24L179.618 283.264C180.128 283.175 180.651 283.188 181.156 283.301C181.661 283.415 182.139 283.627 182.562 283.926C182.985 284.225 183.344 284.605 183.62 285.043C183.896 285.482 184.082 285.97 184.168 286.481C184.343 287.508 184.104 288.563 183.504 289.415C182.904 290.266 181.99 290.846 180.964 291.026Z" fill="white"/>
<path d="M229.489 282.647L198.503 288.008C197.476 288.183 196.422 287.943 195.572 287.342C194.722 286.74 194.146 285.826 193.97 284.8C193.791 283.771 194.027 282.713 194.627 281.859C195.227 281.004 196.141 280.423 197.169 280.241L228.148 274.897C228.656 274.809 229.178 274.821 229.682 274.935C230.186 275.048 230.662 275.259 231.085 275.557C231.507 275.855 231.866 276.232 232.142 276.669C232.418 277.106 232.605 277.592 232.693 278.101C232.782 278.61 232.769 279.132 232.656 279.636C232.542 280.14 232.331 280.616 232.033 281.038C231.736 281.461 231.358 281.82 230.921 282.096C230.485 282.372 229.998 282.559 229.489 282.647Z" fill="white"/>
<path d="M278.052 274.254L247.074 279.598C246.564 279.687 246.041 279.674 245.536 279.561C245.031 279.447 244.553 279.234 244.13 278.935C243.707 278.636 243.348 278.257 243.072 277.818C242.796 277.38 242.61 276.892 242.524 276.381C242.435 275.872 242.448 275.351 242.561 274.847C242.675 274.343 242.886 273.866 243.184 273.444C243.481 273.022 243.859 272.662 244.296 272.386C244.732 272.11 245.219 271.923 245.728 271.835L276.727 266.469C277.756 266.297 278.811 266.54 279.661 267.143C280.512 267.747 281.088 268.663 281.265 269.691C281.354 270.202 281.341 270.725 281.228 271.231C281.115 271.736 280.903 272.215 280.604 272.639C280.306 273.062 279.927 273.423 279.489 273.7C279.051 273.978 278.563 274.166 278.052 274.254Z" fill="white"/>
<path d="M131.704 341.386C130.771 336.003 125.669 332.392 120.307 333.32C114.946 334.249 111.356 339.367 112.289 344.75C113.222 350.134 118.324 353.745 123.685 352.816C129.046 351.887 132.636 346.77 131.704 341.386Z" fill="white"/>
<path d="M169.905 334.786C168.972 329.402 163.87 325.791 158.509 326.72C153.148 327.649 149.558 332.766 150.49 338.15C151.423 343.533 156.525 347.144 161.887 346.215C167.248 345.286 170.838 340.169 169.905 334.786Z" fill="white"/>
<path d="M209.41 323.968C208.469 318.561 203.342 314.937 197.957 315.873C192.572 316.809 188.97 321.952 189.91 327.359C190.85 332.766 195.978 336.39 201.362 335.454C206.747 334.517 210.35 329.375 209.41 323.968Z" fill="white"/>
<path d="M322.705 308.369C321.772 302.985 316.67 299.374 311.309 300.303C305.948 301.232 302.358 306.349 303.29 311.733C304.223 317.116 309.325 320.727 314.687 319.798C320.048 318.87 323.638 313.752 322.705 308.369Z" fill="#0AFF33"/>
<defs>
<filter id="filter0_f_87_2" x="223.555" y="29.3466" width="284.969" height="318.057" filterUnits="userSpaceOnUse" color-interpolation-filters="sRGB">
<feFlood flood-opacity="0" result="BackgroundImageFix"/>
<feBlend mode="normal" in="SourceGraphic" in2="BackgroundImageFix" result="shape"/>
<feGaussianBlur stdDeviation="2" result="effect1_foregroundBlur_87_2"/>
</filter>
</defs>
</svg>
