<svg width="403" height="432" viewBox="0 0 403 432" fill="none" xmlns="http://www.w3.org/2000/svg">
<path d="M151.232 234.978L137.573 254.285C134.673 258.37 131.356 262.143 127.677 265.544C115.313 277.015 98.8352 284.403 79.8147 287.096L93.4844 267.785C112.505 265.092 128.968 257.697 141.347 246.234C145.022 242.834 148.335 239.062 151.232 234.978ZM11.9737 278.974L25.6434 259.664C23.144 258.776 20.6572 257.809 18.1788 256.789C17.4269 256.485 16.7173 256.154 15.9237 255.837C14.1786 255.103 12.4453 254.339 10.7238 253.546L8.10428 252.319C6.34944 251.473 4.61029 250.598 2.8639 249.7L0.721638 248.586C-1.69158 247.293 -4.08127 245.955 -6.45467 244.549L-7.39606 243.964C-9.46552 242.735 -11.4976 241.464 -13.4922 240.153C-14.2562 239.65 -14.9973 239.141 -15.7534 238.623C-17.3212 237.572 -18.881 236.493 -20.4327 235.386L-22.8309 233.622C-24.3915 232.433 -25.9269 231.258 -27.4372 230.096L-29.5029 228.467C-31.6579 226.714 -33.7972 224.931 -35.8822 223.081C-37.7687 221.42 -39.59 219.726 -41.3806 218.009L-43.0022 216.429C-44.249 215.196 -45.4843 213.96 -46.6967 212.716C-47.258 212.137 -47.8192 211.558 -48.369 210.975C-49.6355 209.627 -50.8665 208.272 -52.0618 206.909C-52.4541 206.466 -52.8542 206.037 -53.235 205.59C-54.786 203.794 -56.29 201.987 -57.7468 200.169C-58.0788 199.757 -58.3914 199.326 -58.7233 198.914C-59.8416 197.49 -60.8948 196.032 -61.9901 194.6C-62.4482 193.988 -62.8834 193.369 -63.3185 192.75C-64.2636 191.435 -65.1779 190.097 -66.0772 188.768L-67.236 187.015C-68.3754 185.245 -69.4884 183.478 -70.5259 181.75L-70.7522 181.393C-71.8742 179.478 -72.9431 177.572 -73.9661 175.65C-74.2727 175.079 -74.5564 174.5 -74.8515 173.925C-75.5637 172.549 -76.253 171.166 -76.9157 169.786C-77.2175 169.15 -77.5229 168.503 -77.8169 167.852C-78.4862 166.411 -79.1212 164.96 -79.7182 163.51C-79.8811 162.994 -80.1473 162.511 -80.3562 162.009C-81.1282 160.084 -81.8658 158.149 -82.5388 156.218C-82.6656 155.817 -82.7888 155.427 -82.901 155.072C-83.3936 153.512 -83.8826 151.965 -84.3679 150.428C-84.5671 149.798 -84.7627 149.179 -84.9619 148.548C-85.3857 147.207 -85.6948 145.829 -86.0233 144.471C-86.2116 143.874 -86.3233 143.241 -86.4507 142.639C-86.8383 140.933 -87.1764 139.224 -87.4729 137.527C-87.5381 137.321 -87.6033 137.115 -87.5997 136.886C-87.9234 134.984 -88.1825 133.086 -88.4 131.201C-88.4598 130.652 -88.5045 130.111 -88.5528 129.559C-88.6948 128.192 -88.7952 126.837 -88.8804 125.489C-88.924 124.633 -88.9754 123.792 -89.0038 122.944L-89.0275 121.791C-89.0585 120.376 -89.0629 118.965 -89.0256 117.567L-89.007 117.107C-88.9679 115.834 -88.906 114.553 -88.8035 113.361C-88.7782 112.962 -88.7415 112.559 -88.7011 112.168C-88.6035 111.041 -88.4908 109.921 -88.3401 108.801C-88.313 108.528 -88.2859 108.255 -88.2436 107.989C-88.0556 106.669 -87.8216 105.334 -87.5876 103.999L-87.382 103.014C-87.1715 101.964 -86.9424 100.933 -86.6903 99.8953L-86.4298 98.8043C-86.086 97.4979 -85.7271 96.1993 -85.323 94.9242L-85.247 94.6859C-84.8706 93.4826 -84.449 92.3029 -84.0044 91.1159C-83.8771 90.7605 -83.7348 90.4129 -83.596 90.0539C-83.1925 89.0564 -82.7889 88.0589 -82.3371 87.1344L-81.986 86.33C-81.431 85.1334 -80.8495 83.9409 -80.2263 82.7606L-79.7763 81.9501C-79.2749 81.0226 -78.7471 80.0994 -78.2005 79.1954L-77.5972 78.0717C-76.8872 76.927 -76.1469 75.7979 -75.3729 74.696L-89.0691 94.0021C-89.8546 95.1076 -90.5834 96.2331 -91.2934 97.3779L-91.8865 98.3344C-92.4383 99.2484 -92.9853 100.178 -93.5274 101.122L-93.9774 101.933C-94.5892 103.11 -95.1858 104.294 -95.7371 105.502L-96.0804 106.292C-96.5141 107.273 -96.9291 108.274 -97.3212 109.268L-97.7411 110.334C-98.1742 111.517 -98.5958 112.697 -98.9836 113.904L-99.0596 114.142C-99.4638 115.417 -99.8226 116.716 -100.155 118.019C-100.256 118.378 -100.341 118.746 -100.427 119.113C-100.683 120.14 -100.908 121.182 -101.119 122.232C-101.181 122.554 -101.254 122.88 -101.313 123.214C-101.558 124.552 -101.735 125.869 -101.98 127.207C-102.011 127.469 -102.038 127.742 -102.077 128.019C-102.216 129.135 -102.34 130.259 -102.438 131.386C-102.478 131.777 -102.503 132.176 -102.54 132.579C-102.614 133.863 -102.701 135.063 -102.732 136.321C-102.746 136.477 -102.748 136.629 -102.751 136.781C-102.788 138.18 -102.795 139.594 -102.768 140.998C-102.759 141.386 -102.738 141.77 -102.729 142.158C-102.72 142.546 -102.715 143.2 -102.685 143.733C-102.671 144.056 -102.631 144.384 -102.606 144.704C-102.532 146.055 -102.42 147.406 -102.29 148.777C-102.23 149.326 -102.196 149.87 -102.125 150.415C-101.919 152.304 -101.66 154.202 -101.336 156.105L-101.21 156.745C-100.913 158.442 -100.563 160.147 -100.191 161.845C-100.003 162.441 -99.9024 163.078 -99.7484 163.685C-99.42 165.044 -99.0687 166.395 -98.6871 167.763C-98.4879 168.393 -98.2923 169.012 -98.1504 169.661C-97.6651 171.197 -97.1761 172.745 -96.6836 174.304C-96.5568 174.705 -96.4336 175.095 -96.3214 175.451C-95.7056 177.399 -94.9107 179.317 -94.1387 181.242C-93.9757 181.758 -93.7095 182.241 -93.5007 182.742C-92.8923 184.189 -92.2687 185.644 -91.5994 187.084C-91.3054 187.735 -91.0036 188.371 -90.6982 189.019C-90.0355 190.398 -89.3462 191.782 -88.634 193.158C-88.3389 193.733 -88.0437 194.308 -87.7371 194.879C-86.7141 196.8 -85.6567 198.711 -84.5347 200.626L-84.312 200.972C-83.2564 202.756 -82.1398 204.534 -80.9889 206.302C-80.6141 206.889 -80.2128 207.481 -79.815 208.062C-78.9273 209.395 -78.0129 210.733 -77.0678 212.048C-76.6327 212.667 -76.1861 213.283 -75.7395 213.898C-74.6785 215.341 -73.568 216.78 -72.4612 218.208C-72.1407 218.624 -71.8281 219.055 -71.4961 219.467C-70.0369 221.292 -68.5329 223.099 -66.9843 224.888C-66.5921 225.331 -66.1919 225.76 -65.8111 226.207C-64.6005 227.564 -63.3784 228.918 -62.1069 230.269L-60.446 232.014C-59.2336 233.258 -58.0097 234.497 -56.7515 235.726C-56.2198 236.252 -55.6845 236.789 -55.1299 237.307C-53.3279 239.02 -51.5295 240.721 -49.643 242.382C-47.5544 244.244 -45.4187 246.016 -43.2522 247.765C-42.5727 248.319 -41.8739 248.855 -41.1865 249.394C-39.6718 250.597 -38.1402 251.773 -36.5917 252.923C-35.7909 253.502 -34.9671 254.074 -34.182 254.683C-32.648 255.787 -31.0832 256.869 -29.5142 257.924C-28.7581 258.442 -28.0055 258.948 -27.2415 259.451C-25.2393 260.76 -23.211 262.031 -21.1568 263.265L-20.2154 263.85C-17.842 265.257 -15.4524 266.595 -13.0277 267.884C-12.3265 268.268 -11.6096 268.621 -10.8854 268.998C-9.15411 269.888 -7.41135 270.775 -5.65651 271.62L-3.03693 272.848C-2.28564 273.19 -1.55003 273.563 -0.775811 273.898C-0.00158887 274.234 1.18841 274.728 2.14004 275.146C2.89556 275.462 3.60884 275.804 4.39513 276.098C6.98752 277.12 9.47792 278.098 11.9774 278.985L11.9737 278.974Z" fill="url(#paint0_linear_87_3)"/>
<path d="M25.6475 259.675L11.9779 278.985L55.1045 336.032L68.7627 316.725L25.6475 259.675Z" fill="url(#paint1_linear_87_3)"/>
<path d="M111.688 86.5469C84.0636 62.1261 50.4183 46.2648 16.8921 41.9155C-16.6341 37.5662 -45.854 45.1711 -65.5875 63.4468C-106.159 101.091 -92.8605 172.718 -35.8719 223.116C-17.8739 239.099 3.00445 251.507 25.6465 259.675L68.7797 316.783L93.5019 267.843C112.522 265.15 128.986 257.755 141.364 246.291C181.979 208.583 168.684 136.929 111.688 86.5469Z" fill="url(#paint2_linear_87_3)"/>
<path d="M111.688 86.5469C84.0636 62.1261 50.4183 46.2648 16.8921 41.9155C-16.6341 37.5662 -45.854 45.1711 -65.5875 63.4468C-106.159 101.091 -92.8605 172.718 -35.8719 223.116C-17.8739 239.099 3.00445 251.507 25.6465 259.675L68.7797 316.783L93.5019 267.843C112.522 265.15 128.986 257.755 141.364 246.291C181.979 208.583 168.684 136.929 111.688 86.5469ZM140.946 245.806C135.092 251.181 128.456 255.637 121.266 259.021C112.444 263.14 103.049 265.899 93.4017 267.206L93.1151 267.297L68.6468 315.564L26.0079 259.183L25.8492 259.119C3.28464 250.961 -17.5268 238.595 -35.481 222.677C-68.2542 193.692 -88.0673 155.683 -88.4646 121.021C-88.73 98.0307 -80.6685 78.21 -65.1035 63.8612C-59.233 58.4494 -52.5718 53.9639 -45.3495 50.5595C-27.8642 42.2489 -6.34084 39.4964 16.8716 42.4893C50.2228 46.8435 83.7625 62.6499 111.304 87.0466C144.062 116.024 163.875 154.033 164.276 188.706C164.561 211.64 156.482 231.403 140.946 245.806Z" fill="url(#paint3_linear_87_3)"/>
<path d="M99.2403 98.0697C76.2851 77.772 48.3164 64.5934 20.5131 60.9578C-7.29021 57.3222 -31.5888 63.6623 -48.0299 78.83C-81.8363 110.151 -70.7887 169.704 -23.4232 211.592C-7.40984 225.83 11.3495 236.639 31.699 243.351L36.4167 244.874L61.9019 278.608L76.5877 249.583L80.686 249.146C97.909 247.348 112.854 241.013 123.889 230.806C157.669 199.519 146.621 139.966 99.2403 98.0697Z" fill="url(#paint4_radial_87_3)"/>
<path d="M110.904 154.024C106.401 147.276 101.237 142.704 99.6944 142.17C98.1514 141.637 96.2905 142.212 93.1559 142.786C90.0212 143.36 74.7057 146.207 72.1377 147.018C71.1828 147.242 70.2852 147.663 69.5022 148.254C68.7226 148.98 68.5231 150.064 69.2987 152C70.6592 155.429 72.949 163.834 73.5938 166.354C73.959 167.789 73.8367 168.799 73.088 169.502C72.2574 170.126 71.2741 170.515 70.2412 170.628C61.2488 173.071 51.8929 173.892 42.6124 173.052C33.0122 172.079 23.5632 169.959 14.4672 166.738C13.2433 166.43 12.1497 165.739 11.3457 164.766C10.5417 163.793 10.0692 162.589 9.99706 161.329C9.67521 159.552 8.83009 156.957 8.23726 154.761C7.65171 152.823 6.82367 150.966 5.77281 149.236C4.7318 147.424 3.07065 146.05 1.09588 145.367C-0.653502 144.659 -17.0306 136.682 -23.7668 133.679C-29.4537 131.163 -30.9983 132.42 -32.3854 133.577C-33.2096 134.241 -34.0585 135.026 -34.9267 135.83L-35.9723 136.791C-37.2109 137.939 -38.5532 140.355 -37.6633 144.209C-36.7734 148.064 -35.2642 157.989 -22.5621 169.22C-9.86004 180.451 9.03947 185.197 11.6982 185.87C14.3569 186.544 53.0844 199.374 82.1691 191.182C98.2983 186.641 104.319 183.15 107.41 180.282C108.622 179.08 109.739 177.787 110.753 176.414C113.748 172.883 115.424 160.829 110.904 154.024Z" fill="#FBFBFB"/>
<path d="M401.121 389.217V388.917C401.121 388.41 401.835 385.23 402.319 380.436C402.319 380.021 402.319 379.606 402.434 379.168C402.55 378.731 402.434 377.947 402.596 377.302C403.787 362.031 401.963 346.675 397.226 332.108C396.72 330.541 396.167 328.974 395.59 327.499C392.832 320.106 389.334 313.01 385.151 306.319C383.113 303.016 380.889 299.831 378.492 296.778C376.994 294.842 375.427 292.976 373.883 291.132L373.653 290.856L373.445 290.625L372.616 289.68C371.556 288.528 370.311 287.376 369.159 286.039L369.021 285.901C368.399 285.278 367.776 284.656 367.108 284.034L366.186 283.181C365.933 282.928 365.702 282.697 365.426 282.467L364.804 281.891C360.888 278.329 356.739 275.034 352.383 272.027L349.848 270.298L349.065 269.791L348.281 269.284H348.097L346.806 268.501L346.622 268.385H346.438L345.539 267.855L344.364 267.164L343.327 266.588L342.751 266.265H342.589L342.359 266.15L342.036 265.989L340.884 265.366L339.916 264.859L338.995 264.375L338.419 264.076L337.289 263.523L336.483 263.154L335.423 262.624H335.215L334.409 262.232L333.925 262.025L333.326 261.748H333.211H333.026L332.681 261.61L331.805 261.241L331.229 260.988L330.261 260.573L329.408 260.227L328.901 260.043L328.118 259.743L327.38 259.444L326.136 258.983L325.007 258.591L324.638 258.453L323.578 258.107L322.011 257.6L320.951 257.231L319.753 256.885L318.485 256.494L317.702 256.286L316.988 256.079L316.435 255.941L315.835 255.779C313.531 255.18 311.227 254.673 308.922 254.212L307.448 253.912L305.903 253.636L304.982 253.475L302.677 253.129H301.917L298.806 252.76L297.354 252.622H297.032L294.727 252.438H293.045L290.049 252.299C286.593 252.161 283.136 252.299 279.68 252.299C277.606 252.299 275.785 252.53 273.481 252.806C263.874 253.835 254.431 256.048 245.367 259.397L242.671 260.435L242.302 260.596C240.735 261.218 239.191 261.886 237.694 262.578L237.325 262.739H237.187C237.126 262.727 237.063 262.727 237.002 262.739H236.864L235.574 263.315L233.085 264.56L231.725 265.251L229.098 266.657H228.983L228.384 266.98C224.075 269.423 221.332 271.312 221.171 271.428C219.788 272.349 218.406 273.317 217.023 274.331C216.055 275.046 215.064 275.783 214.027 276.636L213.797 276.797L213.659 276.936C211.585 278.549 209.373 280.393 206.884 282.674L206.769 282.789C205.64 283.826 204.464 285.094 203.243 286.269L200.247 289.311L197.113 292.999C196.076 294.197 195.085 295.303 194.187 296.433C192.162 298.925 190.284 301.534 188.564 304.245C186.882 306.85 185.2 309.638 183.679 312.358C181.95 315.465 180.411 318.675 179.07 321.968C176.497 327.758 174.446 333.766 172.94 339.921C169.89 351.959 168.785 364.408 169.668 376.795C170.09 382.926 170.999 389.014 172.387 395.001C173.055 397.997 173.608 400.14 174.392 402.583C175.314 405.602 176.374 408.621 177.595 411.64C177.733 412.009 177.849 412.355 178.01 412.747C179.301 416.211 180.841 419.577 182.619 422.818C183.84 424.984 185.384 427.888 186.674 429.985C187.965 432.082 189.716 434.825 191.283 436.899C192.873 439.204 193.587 440.056 195.108 441.923C196.975 444.228 198.911 446.532 200.892 448.699C201.538 449.413 202.183 450.082 202.851 450.75C203.519 451.418 204.395 452.317 205.156 453.054L206.653 454.437L206.93 454.691L209.073 456.627L209.626 457.088C211.93 459.185 215.111 461.697 218.567 464.186C219.328 464.716 220.365 465.453 221.609 466.283L222.669 466.997L224.513 468.196L225.803 468.979L226.264 469.256L226.978 469.671L228.153 470.362L229.329 471.03C233.611 473.472 238.062 475.605 242.648 477.414L243.063 477.599L244.284 478.06H244.422L245.482 478.474L247.925 479.35C249.031 479.742 250.506 480.226 251.612 480.572C252.718 480.917 253.916 481.286 255.092 481.609L256.82 482.07C258.387 482.484 260.507 482.922 262.074 483.314C263.641 483.706 265.853 484.005 267.489 484.328C270.992 484.835 275.67 485.365 279.173 485.619C282.239 485.85 285.316 485.919 288.39 485.826H290.695C292.861 485.826 295.119 485.596 297.009 485.48L299.313 485.204C301.11 485.02 302.885 484.789 304.636 484.536L305.535 484.42C307.609 484.144 310.144 483.591 312.448 483.061L315.398 482.346C318.025 481.701 321.32 480.802 323.786 479.903H324.039C326.344 479.143 328.51 478.313 330.722 477.414L332.127 476.861L334.57 475.732L336.529 474.81L340.239 473.082C342.958 471.745 345.597 470.252 348.143 468.611L348.35 468.495L348.719 468.242C350.77 466.951 353.098 465.384 355.863 463.448L356.047 463.31C360.521 460.08 364.736 456.504 368.652 452.617L368.79 452.478C369.989 451.28 371.256 449.989 372.523 448.607C373.077 448.03 373.607 447.431 374.16 446.809C374.713 446.187 375.681 445.104 376.303 444.343L376.925 443.559C378.031 442.223 379.229 440.84 380.22 439.365C381.741 437.383 383.239 435.332 384.368 433.511C386.48 430.342 388.425 427.065 390.198 423.694C391.107 421.412 391.884 419.081 392.526 416.711C393.54 414.406 394.484 412.24 395.383 409.797L395.959 408.207C397.134 405.026 398.263 401.685 399.093 398.205C399.083 398.082 399.083 397.959 399.093 397.836V397.605C399.969 394.955 400.591 392.12 401.121 389.217Z" fill="url(#paint5_radial_87_3)"/>
<mask id="mask0_87_3" style="mask-type:luminance" maskUnits="userSpaceOnUse" x="169" y="252" width="234" height="234">
<path d="M173.24 335.612C173.25 335.52 173.25 335.427 173.24 335.335C173.378 334.828 174.231 331.717 175.936 327.2C176.075 326.808 176.236 326.416 176.397 326.024C176.558 325.633 176.835 324.872 177.088 324.273C182.824 310.07 191.295 297.134 202.022 286.201C203.174 285.025 192.32 297.032 193.519 295.926L205.571 282.744C211.332 277.351 217.624 272.556 224.352 268.432C227.657 266.386 231.073 264.524 234.583 262.855C236.887 261.795 239.007 260.827 241.266 259.905L241.611 259.744H241.888L243.063 259.283C244.507 258.714 246.043 258.138 247.672 257.554H247.856L250.391 256.748L251.589 256.379L252.603 256.079L253.387 255.849C258.485 254.406 263.674 253.305 268.918 252.553L271.937 252.138H272.882H273.804H274.149L275.67 252H276.108H277.145H278.505H279.68H281.155H282.468H291.686H292.654H293.276H294.336H295.235H295.788H296.617H297.401L298.714 252.138L299.912 252.277H300.304L301.41 252.438L303.046 252.668L304.153 252.83L305.397 253.06L306.71 253.291L307.494 253.429L308.208 253.567H308.761L309.383 253.705C311.688 254.166 313.992 254.719 316.297 255.342L317.748 255.757L319.269 256.194L320.168 256.448L322.311 257.139L323.072 257.393L326.021 258.43L327.381 258.96H327.496H327.773L329.846 259.767L331.413 260.435L334.179 261.633C337.313 263.062 340.401 264.652 343.396 266.358C345.217 267.349 346.784 268.294 348.719 269.561C356.861 274.77 364.329 280.963 370.957 287.998L372.916 290.141L373.169 290.441C374.275 291.685 375.473 292.976 376.441 294.29L376.695 294.589V294.705L376.833 294.866V294.981L377.709 296.087C378.285 296.825 378.861 297.562 379.391 298.392L380.29 299.613C380.912 300.466 381.488 301.273 382.018 302.056L382.41 302.609C385.175 306.735 386.788 309.523 386.88 309.8C387.71 311.252 388.516 312.727 389.184 314.248C389.761 315.331 390.314 316.437 390.89 317.612V317.866V318.05C392.019 320.355 393.194 323.051 394.369 326.209V326.347C394.899 327.799 395.429 329.389 395.959 330.956C396.489 332.523 396.881 333.791 397.296 335.012L398.448 339.622C398.84 341.166 399.209 342.618 399.531 344C400.235 347.133 400.758 350.303 401.098 353.495C401.444 356.56 401.697 359.81 401.859 362.921V363.175C402.07 366.736 402.07 370.307 401.859 373.868C401.574 380.198 400.733 386.491 399.347 392.674C398.039 398.749 396.235 404.707 393.955 410.489C391.706 416.215 389.009 421.756 385.889 427.059C382.78 432.357 379.25 437.397 375.335 442.131C373.712 444.195 371.981 446.172 370.15 448.054C367.984 450.358 365.68 452.663 363.237 454.714L362.384 455.521C359.663 458.027 356.768 460.337 353.72 462.435C351.669 463.817 348.996 465.73 346.807 467.044C344.618 468.357 341.945 470.017 339.732 471.146C337.29 472.437 336.299 472.967 334.064 473.958C331.321 475.248 328.579 476.401 325.837 477.438C324.938 477.783 324.062 478.106 323.164 478.406C322.265 478.705 321.09 479.097 320.168 479.374L318.232 479.95L317.864 480.065L315.075 480.825L314.384 481.01C311.296 481.816 307.471 482.692 303.208 483.314L299.544 483.844L298.299 484.006L295.995 484.259L295.741 485.158H295.212H295.096H294.29H292.907H291.571C286.64 485.42 281.697 485.343 276.776 484.928H276.339L275.025 484.789H274.887H273.758L271.177 484.49C270.025 484.352 268.481 484.121 267.328 483.937C266.176 483.752 265.024 483.545 263.757 483.314L262.005 482.969C260.415 482.646 258.318 482.116 256.751 481.747C255.184 481.379 253.041 480.687 251.451 480.249C248.087 479.143 243.662 477.53 240.39 476.193C237.556 475.037 234.787 473.729 232.094 472.275L230.182 471.215L224.674 468.081L222.807 466.836C221.287 465.868 219.789 464.877 218.337 463.84L217.577 463.356C215.848 462.181 213.797 460.545 211.977 459.047L209.673 457.111C207.429 455.248 205.291 453.263 203.266 451.165L203.082 450.958C201.423 449.275 199.787 447.547 198.22 445.749L197.206 444.62L195.524 442.523C195.063 441.97 194.625 441.393 194.164 440.817L191.629 437.637C189.789 435.224 188.089 432.708 186.536 430.101L186.398 429.916L186.168 429.502C184.946 427.451 183.541 424.892 181.951 422.035C181.904 421.971 181.865 421.901 181.835 421.827C179.259 416.947 177.078 411.869 175.314 406.64V406.455C174.784 404.842 174.231 403.137 173.701 401.316C173.471 400.533 173.263 399.749 173.033 399.012C172.802 398.274 172.457 396.707 172.226 395.854L172.019 394.886C171.627 393.204 171.258 391.452 170.936 389.655C170.452 387.189 170.037 384.7 169.83 382.557C169.392 378.938 169.092 375.136 169 371.172C169 368.752 169 366.332 169 364.12C169 361.907 169.253 359.234 169.507 356.722C169.507 356.146 169.622 355.616 169.668 355.062C170.06 351.675 170.613 348.149 171.35 344.715C171.36 344.584 171.36 344.453 171.35 344.323V344.092C171.719 341.281 172.434 338.469 173.24 335.612Z" fill="white"/>
</mask>
<g mask="url(#mask0_87_3)">
<path d="M243.293 340.843C242.119 341.26 241.091 342.01 240.335 343C239.579 343.991 239.127 345.18 239.034 346.423C238.942 347.665 239.212 348.908 239.813 350C240.413 351.092 241.318 351.986 242.417 352.573C242.792 352.743 243.177 352.889 243.57 353.011C254.446 355.615 259.424 356.814 277.052 360.57C253.294 383.985 253.202 384.169 252.603 385.299C252.079 386.358 251.835 387.534 251.895 388.715C251.955 389.896 252.317 391.041 252.945 392.042C253.574 393.043 254.449 393.866 255.486 394.432C256.524 394.999 257.689 395.29 258.871 395.278C260.409 395.236 261.871 394.6 262.95 393.503C289.634 367.092 292.215 364.465 292.377 364.281C293.145 363.383 293.661 362.298 293.871 361.136C294.082 359.973 293.98 358.776 293.575 357.666L292.054 353.495C291.654 352.416 290.985 351.458 290.11 350.711C289.234 349.965 288.182 349.455 287.053 349.231C273.365 346.535 259.816 343.263 246.104 340.612C245.2 340.479 244.277 340.558 243.408 340.843" fill="#412121"/>
<path d="M350.378 302.148C350.093 302.271 349.841 302.461 349.645 302.702C349.448 302.942 349.313 303.227 349.249 303.531C346.471 313.268 342.361 322.574 337.036 331.186C336.557 332.125 336.307 333.163 336.307 334.217C336.307 335.271 336.557 336.309 337.036 337.248C337.612 338.607 338.188 339.99 338.741 341.373C339.142 342.479 339.801 343.474 340.663 344.275C341.524 345.076 342.564 345.662 343.696 345.982C353.531 347.832 363.208 350.445 372.639 353.795C373.005 353.938 373.401 353.986 373.791 353.933C376.395 353.725 377.271 347.78 374.575 343.378C374.012 342.305 373.114 341.447 372.017 340.935C364.598 338.204 356.988 336.025 349.249 334.413C357.245 318.28 358.467 312.542 358.674 310.537C358.812 306.942 353.858 301.088 350.586 302.033H350.378" fill="#412121"/>
<path d="M351.346 379.607C350.021 380.318 348.949 381.422 348.276 382.767C347.604 384.112 347.364 385.633 347.59 387.12C348.927 401.777 342.982 413.669 332.957 416.02C324.616 417.978 316.412 411.687 312.08 399.887C311.648 398.827 310.929 397.909 310.002 397.237C309.076 396.564 307.98 396.165 306.839 396.083C305.697 396.002 304.556 396.242 303.543 396.775C302.531 397.309 301.688 398.116 301.111 399.104C296.502 405.833 308.969 422.15 319.546 426.275C348.166 437.245 361.693 394.01 356.416 382.142C356.257 381.628 355.997 381.152 355.65 380.741C355.303 380.331 354.878 379.994 354.398 379.751C353.919 379.508 353.396 379.364 352.859 379.327C352.323 379.291 351.785 379.362 351.277 379.537" fill="#412221"/>
<path d="M256.82 407.492C235.712 415.282 237.533 431.806 249.907 437.637C268.227 446.325 290.511 429.916 285.787 416.158C282.745 407.308 269.495 403.344 256.89 407.492" fill="#FF3B62"/>
<path d="M380.474 362.806C366.463 369.881 365.956 394.495 376.603 398.182C387.871 402.123 395.683 379.146 389.876 367.024C387.802 362.691 384.368 361.17 380.474 362.806Z" fill="#FF3B62"/>
</g>
<path d="M-10.9491 322.965C-10.5589 321.976 -10.147 320.991 -9.70051 320.058C-9.45033 319.518 -9.20015 318.978 -8.93273 318.464C-8.43347 317.497 -7.89975 316.583 -7.34419 315.674C-7.0687 315.23 -6.81503 314.782 -6.54413 314.36C-5.74588 313.134 -4.88173 311.953 -3.95548 310.822C-3.93356 310.758 -3.91969 310.692 -3.9142 310.625C-3.39644 310.004 -2.84878 309.458 -2.29654 308.89C-1.7443 308.322 -1.54916 308.044 -1.14272 307.628C-0.736292 307.211 0.0307112 306.597 0.639252 306.087C1.24779 305.576 1.45559 305.346 1.89191 305.004C2.32823 304.663 3.44205 303.916 4.23436 303.399C4.54669 303.213 4.85096 302.958 5.1633 302.773C6.31029 302.093 7.49627 301.482 8.71507 300.942L156.389 236.304C158.953 235.18 161.659 234.413 164.432 234.025L124.732 239.369C121.96 239.757 119.253 240.523 116.689 241.647L-30.8975 306.304C-32.0943 306.851 -33.2584 307.467 -34.3838 308.148C-34.7754 308.385 -35.1325 308.675 -35.5022 308.917C-35.8719 309.158 -36.9766 309.861 -37.6598 310.402C-38.343 310.942 -38.4934 311.116 -38.9079 311.462C-39.3224 311.808 -40.1204 312.462 -40.6944 313.025C-41.2685 313.589 -41.49 313.884 -41.8746 314.305C-42.2593 314.726 -42.9481 315.402 -43.4395 316.006C-43.4398 316.066 -43.4523 316.125 -43.4762 316.18C-44.3988 317.315 -45.2628 318.495 -46.0648 319.718C-46.3357 320.14 -46.5894 320.588 -46.8649 321.032C-47.4204 321.941 -47.9588 322.877 -48.4534 323.822C-48.7254 324.358 -48.971 324.876 -49.2212 325.417C-49.6722 326.371 -50.0796 327.334 -50.4698 328.324C-50.589 328.892 -50.9046 329.418 -51.1112 329.968C-51.5097 331.07 -51.8619 332.204 -52.1677 333.371C-52.2411 333.72 -52.3191 334.092 -52.3924 334.441L-52.4704 334.812C-52.5759 335.315 -52.6814 335.817 -52.7914 336.341C-52.9779 337.229 -53.166 338.124 -53.3555 339.027C-53.4747 339.595 -53.5986 340.185 -53.7178 340.752C-53.837 341.32 -54.0755 342.456 -54.0361 343.353C-53.9968 344.251 -54.1356 344.586 -54.1985 345.212C-54.2615 345.837 -54.2898 346.948 -54.3159 347.832C-54.3419 348.716 -54.328 349.083 -54.3255 349.722C-54.323 350.361 -54.2904 351.508 -54.2464 352.384C-54.2024 353.259 -54.1931 353.649 -54.1423 354.275C-54.0915 354.902 -53.9418 356.142 -53.8415 357.075C-53.7412 358.008 -53.7044 358.266 -53.6008 358.858C-53.4534 359.892 -53.2359 360.918 -53.0139 361.923C-52.9184 362.444 -52.8401 362.94 -52.7227 363.466C-52.3569 364.979 -51.9521 366.523 -51.4071 368.052L-13.5738 488.566C-10.4317 499.812 -3.51332 509.631 6.01703 516.37C8.84386 518.178 11.906 519.589 15.1174 520.561C16.1579 520.874 17.2138 521.134 18.2808 521.34C19.3405 521.551 20.4105 521.707 21.4865 521.808C23.64 521.992 25.8074 521.935 27.9482 521.637L67.6481 516.293C50.4104 518.624 32.7913 505.302 25.8504 483.233L-11.9909 362.648C-12.4486 361.139 -12.8581 359.616 -13.3112 358.085C-13.4285 357.558 -13.5068 357.063 -13.6241 356.537C-13.8198 355.515 -14.0418 354.511 -14.1892 353.477C-14.2928 352.885 -14.3482 352.281 -14.4299 351.693C-14.5117 351.106 -14.6523 349.823 -14.7308 348.894C-14.8092 347.966 -14.8105 347.646 -14.8348 347.003C-14.8592 346.359 -14.9182 345.229 -14.9139 344.341C-14.9097 343.453 -14.919 343.063 -14.9043 342.451C-14.8896 341.838 -14.8303 340.688 -14.787 339.83C-14.7436 338.973 -14.6875 338.597 -14.6246 337.972C-14.5616 337.347 -14.4414 336.232 -14.3062 335.371C-14.171 334.51 -14.0632 334.214 -13.9439 333.646C-13.7574 332.758 -13.5694 331.862 -13.3799 330.96C-13.2698 330.436 -13.1643 329.933 -13.0588 329.431C-12.9533 328.929 -12.857 328.47 -12.647 328.013C-12.3994 326.833 -12.0472 325.699 -11.5905 324.609C-11.3794 324.038 -11.1774 323.51 -10.9491 322.965Z" fill="url(#paint6_linear_87_3)"/>
<path d="M244.063 387.6L206.213 267.06C198.199 241.527 175.887 227.767 156.389 236.304L8.80241 300.961C-10.6956 309.498 -20.0092 337.138 -12.0046 362.714L25.8459 483.254C33.8597 508.787 56.1845 522.596 75.6607 514.054L111.569 498.338L165.062 531.37L187.361 465.118L223.269 449.402C242.78 440.799 252.06 413.107 244.063 387.6Z" fill="url(#paint7_radial_87_3)"/>
<path style="mix-blend-mode:overlay" opacity="0.7" d="M244.063 387.6L206.213 267.06C198.199 241.527 175.887 227.767 156.389 236.304L8.80241 300.961C-10.6956 309.498 -20.0092 337.138 -12.0046 362.714L25.8459 483.254C33.8597 508.787 56.1845 522.596 75.6607 514.054L111.569 498.338L165.062 531.37L187.361 465.118L223.269 449.402C242.78 440.799 252.06 413.107 244.063 387.6ZM222.701 447.983L186.213 463.965L164.266 529.082L111.704 496.611L75.0928 512.635C68.741 515.428 61.5862 515.792 54.9856 513.657C42.4753 509.753 32.1214 498.185 27.294 482.761L-10.5783 362.216C-18.3805 337.411 -9.41115 310.543 9.38408 302.314L157.015 237.553C163.374 234.755 170.537 234.386 177.149 236.514C189.637 240.413 199.991 251.982 204.84 267.41L242.669 387.946C250.448 412.86 241.496 439.754 222.701 447.983Z" fill="url(#paint8_linear_87_3)"/>
<path d="M160.792 341.635C154.908 322.888 138.574 312.777 124.272 319.031C114.482 323.336 108.209 334.217 107.082 346.635C99.3572 338.173 88.6319 334.666 78.8238 338.945C64.5439 345.204 57.7165 365.454 63.596 384.222C69.8791 404.216 85.5696 413.918 98.5172 420.08C104.345 422.837 110.327 425.258 116.431 427.331L134.234 433.053L144.561 415.02C145.055 414.075 149.737 405.778 154.125 395.732C160.536 381.049 167.075 361.628 160.792 341.635Z" fill="url(#paint9_linear_87_3)"/>
<defs>
<linearGradient id="paint0_linear_87_3" x1="-123.025" y1="125.086" x2="132.936" y2="264.57" gradientUnits="userSpaceOnUse">
<stop stop-color="#F2F9FF"/>
<stop offset="0.06" stop-color="#DBE9F5"/>
<stop offset="0.09" stop-color="#D1E2F1"/>
<stop offset="0.15" stop-color="#BED6EA"/>
<stop offset="0.22" stop-color="#B0CEE6"/>
<stop offset="0.3" stop-color="#A8C8E3"/>
<stop offset="0.47" stop-color="#A6C7E2"/>
<stop offset="0.77" stop-color="#A0C4DF"/>
<stop offset="0.87" stop-color="#88ADCF"/>
<stop offset="0.92" stop-color="#8BAFD1"/>
<stop offset="0.95" stop-color="#94B7D7"/>
<stop offset="0.98" stop-color="#A6C7E2"/>
</linearGradient>
<linearGradient id="paint1_linear_87_3" x1="134.837" y1="411.331" x2="-1.14321" y2="240.289" gradientUnits="userSpaceOnUse">
<stop stop-color="#F2F9FF"/>
<stop offset="0.02" stop-color="#E9F3FB"/>
<stop offset="0.03" stop-color="#DBE9F5"/>
<stop offset="0.15" stop-color="#D9E8F4"/>
<stop offset="0.21" stop-color="#D1E3F2"/>
<stop offset="0.26" stop-color="#C4DAED"/>
<stop offset="0.3" stop-color="#B2CFE6"/>
<stop offset="0.32" stop-color="#A6C7E2"/>
<stop offset="0.77" stop-color="#A0C4DF"/>
<stop offset="0.87" stop-color="#88ADCF"/>
<stop offset="0.92" stop-color="#8BAFD1"/>
<stop offset="0.95" stop-color="#94B7D7"/>
<stop offset="0.98" stop-color="#A6C7E2"/>
</linearGradient>
<linearGradient id="paint2_linear_87_3" x1="83.632" y1="43.0664" x2="-19.6592" y2="293.405" gradientUnits="userSpaceOnUse">
<stop stop-color="#F2F9FF"/>
<stop offset="0.8" stop-color="#C0D6F2"/>
<stop offset="1" stop-color="#B3CDEC"/>
</linearGradient>
<linearGradient id="paint3_linear_87_3" x1="68.3768" y1="40.3492" x2="-6.20805" y2="315.478" gradientUnits="userSpaceOnUse">
<stop stop-color="#F2F9FF"/>
<stop offset="0.8" stop-color="#C0D6F2"/>
<stop offset="1" stop-color="#B3CDEC"/>
</linearGradient>
<radialGradient id="paint4_radial_87_3" cx="0" cy="0" r="1" gradientUnits="userSpaceOnUse" gradientTransform="translate(106.72 295.833) rotate(-25.582) scale(257.625 257.625)">
<stop offset="0.3" stop-color="#42C352"/>
<stop offset="0.48" stop-color="#58CE5E"/>
<stop offset="0.99" stop-color="#95EE81"/>
</radialGradient>
<radialGradient id="paint5_radial_87_3" cx="0" cy="0" r="1" gradientUnits="userSpaceOnUse" gradientTransform="translate(287.959 388.045) rotate(13.2413) scale(134.669 134.681)">
<stop stop-color="#F79F40"/>
<stop offset="0.16" stop-color="#F7A542"/>
<stop offset="0.37" stop-color="#F8B44A"/>
<stop offset="0.6" stop-color="#FACE55"/>
<stop offset="0.77" stop-color="#FBE660"/>
<stop offset="0.91" stop-color="#FBF36F"/>
<stop offset="0.93" stop-color="#FBF672"/>
<stop offset="0.95" stop-color="#FBF676"/>
<stop offset="0.96" stop-color="#FBF783"/>
<stop offset="0.98" stop-color="#FCF897"/>
<stop offset="0.99" stop-color="#FDFAB4"/>
<stop offset="1" stop-color="#FDFBC2"/>
</radialGradient>
<linearGradient id="paint6_linear_87_3" x1="67.3813" y1="200.014" x2="17.9539" y2="556.359" gradientUnits="userSpaceOnUse">
<stop stop-color="#ED1D77"/>
<stop offset="0.01" stop-color="#E91D78"/>
<stop offset="0.23" stop-color="#B72089"/>
<stop offset="0.33" stop-color="#A3218F"/>
<stop offset="0.44" stop-color="#810D7A"/>
<stop offset="0.54" stop-color="#761277"/>
<stop offset="0.68" stop-color="#611A71"/>
<stop offset="0.72" stop-color="#5C1E76"/>
<stop offset="0.78" stop-color="#4F2A85"/>
<stop offset="0.84" stop-color="#3A3E9D"/>
<stop offset="0.9" stop-color="#2D51B4"/>
<stop offset="0.92" stop-color="#4C49AB"/>
<stop offset="0.94" stop-color="#7E3B9B"/>
<stop offset="0.97" stop-color="#C22985"/>
<stop offset="0.99" stop-color="#ED1D77"/>
</linearGradient>
<radialGradient id="paint7_radial_87_3" cx="0" cy="0" r="1" gradientUnits="userSpaceOnUse" gradientTransform="translate(68.876 639.644) rotate(17.3634) scale(426.939 427.205)">
<stop offset="0.599" stop-color="#FF00B8"/>
<stop offset="1" stop-color="#FF0025"/>
</radialGradient>
<linearGradient id="paint8_linear_87_3" x1="194.323" y1="217.045" x2="27.4694" y2="553.556" gradientUnits="userSpaceOnUse">
<stop offset="0.08" stop-color="white"/>
<stop offset="1" stop-color="white" stop-opacity="0"/>
</linearGradient>
<linearGradient id="paint9_linear_87_3" x1="191.424" y1="323.2" x2="40.6901" y2="433.854" gradientUnits="userSpaceOnUse">
<stop stop-color="#F2F9FF"/>
<stop offset="0.8" stop-color="#C0D6F2"/>
<stop offset="1" stop-color="#B3CDEC"/>
</linearGradient>
</defs>
</svg>
