<svg width="171" height="133" viewBox="0 0 171 133" fill="none" xmlns="http://www.w3.org/2000/svg">
<g filter="url(#filter0_f_79_97)">
<path d="M11.6418 85.5629L11.5439 85.514L11.4068 85.4356L11.0052 85.1809L10.6722 84.9263L10.584 84.8479L10.535 84.799L10.3783 84.6618L10.1139 84.3876L9.88861 84.1133L9.82004 84.0056L9.72209 83.8587C9.65607 83.7619 9.59716 83.6604 9.54579 83.5551C9.48694 83.4487 9.43777 83.3372 9.39888 83.222L9.34009 83.0849L4.28613 69.3726C4.40668 69.6984 4.56793 70.0078 4.76606 70.2932V70.3422C4.97475 70.6319 5.21452 70.898 5.48107 71.1356H5.53003C5.83094 71.393 6.15943 71.6164 6.50948 71.8016L6.60743 71.8506C7.00279 72.0648 7.41563 72.245 7.84152 72.3893L40.6826 83.1633L45.7366 96.8756L12.8955 86.1016L12.5233 85.9645C12.3128 85.8882 12.1068 85.7999 11.9063 85.7001L11.6418 85.5629Z" fill="url(#paint0_linear_79_97)"/>
<path d="M138.167 50.5376L159.784 21.536C160.45 20.6882 160.916 19.7002 161.145 18.6466C161.32 17.8374 161.262 16.9953 160.979 16.2175L166.032 29.9299C166.315 30.7078 166.373 31.5497 166.199 32.3589C165.969 33.4126 165.504 34.4005 164.838 35.2483L143.221 64.2499L138.167 50.5376Z" fill="url(#paint1_linear_79_97)"/>
<path d="M52.9743 128.12L52.3769 127.865L52.0733 127.708H52.0145L51.897 127.65L51.4954 127.395L51.1624 127.14L50.8587 126.866L50.6726 126.67V126.621C50.5922 126.531 50.517 126.436 50.4473 126.337C50.3733 126.247 50.3046 126.152 50.2417 126.053L50.0653 125.74C50.0105 125.631 49.9615 125.52 49.9184 125.407L49.8597 125.27L44.8057 111.557C44.9999 112.078 45.2926 112.557 45.6676 112.968C46.0585 113.381 46.5112 113.731 47.0094 114.006H47.0682C47.6158 114.305 48.1981 114.535 48.8019 114.692C49.4659 114.863 50.1448 114.971 50.8293 115.015C51.0546 115.015 51.2897 115.015 51.515 115.015C52.0499 115.049 52.5864 115.049 53.1213 115.015H53.3073C54.0742 114.926 54.8336 114.782 55.5797 114.584H55.6384C56.4527 114.366 57.2485 114.084 58.0185 113.741C58.8275 113.382 59.6069 112.96 60.3496 112.478L95.7275 89.4216L100.781 103.134L65.4036 126.2L65.3056 126.259L64.7964 126.572C64.62 126.68 64.4535 126.778 64.2772 126.866L63.7777 127.131L63.2684 127.375L63.0725 127.454H63.0235L62.7493 127.571L62.2302 127.777L61.6719 127.983L61.094 128.159L60.6435 128.286H60.5945H60.4769L59.7717 128.453C59.5106 128.512 59.2461 128.561 58.9784 128.6L58.3124 128.678H58.1165H57.9206C57.4406 128.678 56.9411 128.678 56.5101 128.678C56.2947 128.678 56.0596 128.678 55.8343 128.678C55.1561 128.642 54.4834 128.537 53.8265 128.365C53.5 128.299 53.2159 128.218 52.9743 128.12Z" fill="url(#paint2_linear_79_97)"/>
<path d="M95.7471 89.2946L136.943 86.7676C137.704 86.7175 138.46 86.6127 139.205 86.4542C139.93 86.2992 140.643 86.0963 141.341 85.8469H141.409C142.08 85.6106 142.735 85.3291 143.368 85.0046H143.427C144.041 84.688 144.633 84.3313 145.2 83.937C145.729 83.566 146.233 83.1603 146.708 82.7225L146.777 82.6539C147.1 82.3466 147.404 82.0195 147.688 81.6744C147.977 81.3238 148.242 80.9541 148.481 80.5676C148.589 80.3913 148.716 80.2248 148.804 80.0485C149.086 79.5216 149.294 78.9579 149.421 78.3737C149.597 77.5581 149.54 76.7093 149.255 75.925L154.309 89.6374C154.593 90.4217 154.651 91.2704 154.475 92.086C154.35 92.6707 154.142 93.2346 153.858 93.7609C153.77 93.9372 153.643 94.1037 153.535 94.28C153.298 94.668 153.033 95.0379 152.741 95.3868C152.673 95.4749 152.634 95.5631 152.555 95.6512C152.477 95.7394 152.134 96.1018 151.899 96.3271L151.831 96.3956L151.762 96.4544C151.615 96.5915 151.478 96.7188 151.321 96.8462L150.783 97.2869L150.254 97.6689L149.774 98.0019L149.274 98.3056L148.775 98.5896L148.481 98.7365H148.422L148.275 98.8149L147.776 99.0597L147.266 99.285L146.737 99.4907L146.473 99.5887H146.404L146.179 99.667L145.611 99.8531C145.405 99.9217 145.19 99.9706 144.974 100.029L144.279 100.196C144.015 100.255 143.74 100.304 143.476 100.343C143.211 100.382 142.751 100.451 142.389 100.48H142.007L100.87 103.007L95.7471 89.2946Z" fill="url(#paint3_linear_79_97)"/>
<path d="M44.5216 110.588L40.6723 83.1631L7.83125 72.3891C4.81453 71.4096 3.63919 69.2254 4.09953 66.8552C4.55988 64.4849 6.67548 61.9579 10.2407 60.1459L49.0368 40.645L64.1107 10.85C66.8825 5.39446 76.3539 2.22102 81.4568 5.06144L109.273 20.4486L151.458 12.8677C157.766 11.7315 161.929 14.6601 161.145 18.6465C160.916 19.7001 160.45 20.6881 159.784 21.5359L138.167 50.5375L149.157 75.6017C149.527 76.4491 149.62 77.392 149.421 78.2952C148.647 82.2816 143.094 86.3757 136.943 86.7675L95.747 89.2945L60.3691 112.351C53.8754 116.582 45.2268 115.622 44.5216 110.588Z" fill="url(#paint4_linear_79_97)"/>
<path style="mix-blend-mode:overlay" opacity="0.7" d="M60.3692 112.351L95.7471 89.2945L136.943 86.7675C143.094 86.3757 148.647 82.2816 149.421 78.2952C149.62 77.392 149.527 76.4491 149.157 75.6017L138.167 50.5375L159.784 21.5359C160.45 20.6881 160.916 19.7001 161.145 18.6465C161.929 14.6601 157.766 11.7315 151.458 12.8677L109.273 20.4486L81.4569 5.06144C76.354 2.22102 66.8826 5.39446 64.1108 10.85L49.0271 40.596L10.2408 60.0969C6.6756 61.8796 4.56979 64.4359 4.09965 66.8062C3.62951 69.1765 4.81465 71.3411 7.83136 72.3401L40.6724 83.1141L44.5217 110.539C45.2269 115.622 53.8755 116.582 60.3692 112.351ZM47.8028 113.477C47.1646 113.233 46.5997 112.83 46.1623 112.305C45.725 111.78 45.4298 111.152 45.3052 110.48L41.3874 82.5264L8.086 71.5761C5.63737 70.773 4.47183 69.0883 4.8832 66.9629C4.96726 66.5584 5.09536 66.1642 5.2652 65.7876C6.42841 63.5749 8.30639 61.8212 10.5934 60.812L49.6344 41.2229L64.8355 11.2418C66.0892 8.78336 69.057 6.5796 72.5928 5.5022C75.8152 4.52275 78.9887 4.63047 81.0749 5.78622L109.166 21.291L151.635 13.6512C154.965 13.0538 157.884 13.6513 159.421 15.1988C159.851 15.619 160.166 16.1416 160.337 16.7174C160.509 17.2932 160.531 17.9032 160.401 18.4897C160.325 18.8825 160.199 19.2641 160.029 19.6259C159.801 20.1342 159.515 20.6141 159.177 21.0559L137.286 50.4395L148.461 75.9053C148.764 76.6022 148.839 77.3767 148.677 78.1189C148.599 78.5101 148.478 78.8913 148.314 79.2551C146.982 82.1934 142.536 85.5921 136.933 85.9447L95.4533 88.5011L59.8991 111.675C55.5895 114.506 50.5453 114.721 47.8028 113.477Z" fill="url(#paint5_linear_79_97)"/>
</g>
<defs>
<filter id="filter0_f_79_97" x="0" y="-0.000244141" width="170.297" height="132.678" filterUnits="userSpaceOnUse" color-interpolation-filters="sRGB">
<feFlood flood-opacity="0" result="BackgroundImageFix"/>
<feBlend mode="normal" in="SourceGraphic" in2="BackgroundImageFix" result="shape"/>
<feGaussianBlur stdDeviation="2" result="effect1_foregroundBlur_79_97"/>
</filter>
<linearGradient id="paint0_linear_79_97" x1="101.681" y1="80.7136" x2="6.88139" y2="107.257" gradientUnits="userSpaceOnUse">
<stop stop-color="#FFFF54"/>
<stop offset="0.01" stop-color="#F7EE50"/>
<stop offset="0.04" stop-color="#E6C748"/>
<stop offset="0.07" stop-color="#D7A641"/>
<stop offset="0.1" stop-color="#CB8C3B"/>
<stop offset="0.13" stop-color="#C27737"/>
<stop offset="0.17" stop-color="#BB6833"/>
<stop offset="0.21" stop-color="#B76032"/>
<stop offset="0.28" stop-color="#B75F31"/>
<stop offset="0.29" stop-color="#C87E39"/>
<stop offset="0.31" stop-color="#D7993F"/>
<stop offset="0.32" stop-color="#E3AF44"/>
<stop offset="0.33" stop-color="#EDC048"/>
<stop offset="0.35" stop-color="#F3CB4B"/>
<stop offset="0.38" stop-color="#F7D24D"/>
<stop offset="0.46" stop-color="#F8D44D"/>
<stop offset="0.48" stop-color="#EEC149"/>
<stop offset="0.52" stop-color="#DA9D40"/>
<stop offset="0.56" stop-color="#CA8139"/>
<stop offset="0.6" stop-color="#BF6D35"/>
<stop offset="0.64" stop-color="#B86132"/>
<stop offset="0.69" stop-color="#B65D31"/>
<stop offset="0.7" stop-color="#B86132"/>
<stop offset="0.72" stop-color="#BC6733"/>
<stop offset="0.77" stop-color="#C97A38"/>
<stop offset="0.82" stop-color="#D48C3C"/>
<stop offset="0.89" stop-color="#DB963F"/>
<stop offset="0.96" stop-color="#DD9940"/>
<stop offset="0.98" stop-color="#E6AC44"/>
<stop offset="1" stop-color="#F8D44D"/>
</linearGradient>
<linearGradient id="paint1_linear_79_97" x1="168.261" y1="50.2159" x2="16.8662" y2="131.882" gradientUnits="userSpaceOnUse">
<stop offset="0.01" stop-color="#FFFF54"/>
<stop offset="0.02" stop-color="#F5E24E"/>
<stop offset="0.03" stop-color="#ECC749"/>
<stop offset="0.04" stop-color="#E6B345"/>
<stop offset="0.06" stop-color="#E1A442"/>
<stop offset="0.07" stop-color="#DE9C41"/>
<stop offset="0.1" stop-color="#DD9940"/>
<stop offset="0.14" stop-color="#D0863B"/>
<stop offset="0.21" stop-color="#B65D31"/>
<stop offset="0.28" stop-color="#B65D31"/>
<stop offset="0.69" stop-color="#B65D31"/>
<stop offset="0.7" stop-color="#B86132"/>
<stop offset="0.72" stop-color="#BC6733"/>
<stop offset="0.75" stop-color="#C97E39"/>
<stop offset="0.79" stop-color="#DA9D40"/>
<stop offset="0.84" stop-color="#E7B546"/>
<stop offset="0.89" stop-color="#F1C74A"/>
<stop offset="0.94" stop-color="#F6D14C"/>
<stop offset="1" stop-color="#F8D44D"/>
</linearGradient>
<linearGradient id="paint2_linear_79_97" x1="195.092" y1="80.0499" x2="27.7083" y2="148.132" gradientUnits="userSpaceOnUse">
<stop stop-color="#FFFF54"/>
<stop offset="0.01" stop-color="#F7EE50"/>
<stop offset="0.04" stop-color="#E6C748"/>
<stop offset="0.07" stop-color="#D7A641"/>
<stop offset="0.1" stop-color="#CB8C3B"/>
<stop offset="0.13" stop-color="#C27737"/>
<stop offset="0.17" stop-color="#BB6833"/>
<stop offset="0.21" stop-color="#B76032"/>
<stop offset="0.28" stop-color="#B65D31"/>
<stop offset="0.33" stop-color="#B65D31"/>
<stop offset="0.62" stop-color="#B65D31"/>
<stop offset="0.68" stop-color="#B86132"/>
<stop offset="0.82" stop-color="#BC6733"/>
<stop offset="0.96" stop-color="#DD9940"/>
<stop offset="0.98" stop-color="#E6AC44"/>
<stop offset="1" stop-color="#F8D44D"/>
</linearGradient>
<linearGradient id="paint3_linear_79_97" x1="157.971" y1="99.1378" x2="-56.8348" y2="182.063" gradientUnits="userSpaceOnUse">
<stop stop-color="#FDFB53"/>
<stop offset="0.05" stop-color="#EAD14A"/>
<stop offset="0.1" stop-color="#DBAE42"/>
<stop offset="0.16" stop-color="#CE933D"/>
<stop offset="0.21" stop-color="#C68038"/>
<stop offset="0.26" stop-color="#C17536"/>
<stop offset="0.32" stop-color="#BF7135"/>
<stop offset="0.33" stop-color="#C98239"/>
<stop offset="0.37" stop-color="#DDA542"/>
<stop offset="0.4" stop-color="#ECBF48"/>
<stop offset="0.43" stop-color="#F5CF4C"/>
<stop offset="0.46" stop-color="#F8D44D"/>
<stop offset="0.48" stop-color="#EEC149"/>
<stop offset="0.52" stop-color="#DA9D40"/>
<stop offset="0.56" stop-color="#CA8139"/>
<stop offset="0.6" stop-color="#BF6D35"/>
<stop offset="0.64" stop-color="#B86132"/>
<stop offset="0.69" stop-color="#B65D31"/>
<stop offset="0.7" stop-color="#B86132"/>
<stop offset="0.72" stop-color="#BC6733"/>
<stop offset="0.77" stop-color="#C97A38"/>
<stop offset="0.82" stop-color="#D48C3C"/>
<stop offset="0.89" stop-color="#DB963F"/>
<stop offset="0.96" stop-color="#DD9940"/>
<stop offset="0.98" stop-color="#E6AC44"/>
<stop offset="1" stop-color="#F8D44D"/>
</linearGradient>
<linearGradient id="paint4_linear_79_97" x1="56.9143" y1="27.026" x2="122.854" y2="130.483" gradientUnits="userSpaceOnUse">
<stop stop-color="#FFFF7C"/>
<stop offset="1" stop-color="#F1B747"/>
</linearGradient>
<linearGradient id="paint5_linear_79_97" x1="57.5381" y1="13.9705" x2="138.553" y2="108.873" gradientUnits="userSpaceOnUse">
<stop offset="0.08" stop-color="white"/>
<stop offset="1" stop-color="white" stop-opacity="0"/>
</linearGradient>
</defs>
</svg>
