<svg width="17" height="16" viewBox="0 0 17 16" fill="none" xmlns="http://www.w3.org/2000/svg">
<g clip-path="url(#clip0_49_2921)">
<path d="M8.19995 0C3.7812 0 0.199951 3.58125 0.199951 8C0.199951 12.4187 3.7812 16 8.19995 16C12.6187 16 16.2 12.4187 16.2 8C16.2 3.58125 12.6187 0 8.19995 0ZM11.3937 6.75625C11.3968 6.825 11.3968 6.89687 11.3968 6.96875C11.3968 9.14062 9.7437 11.6469 6.7187 11.6469C5.79058 11.6469 4.92495 11.375 4.19995 10.9094C4.32808 10.925 4.45933 10.9312 4.5937 10.9312C5.36245 10.9312 6.07183 10.6687 6.63433 10.2281C5.91558 10.2156 5.3062 9.74062 5.09995 9.0875C5.19995 9.10625 5.30308 9.11563 5.40933 9.11563C5.55933 9.11563 5.7062 9.09687 5.8437 9.05625C5.09058 8.90625 4.52495 8.24063 4.52495 7.44375V7.425C4.74683 7.54688 4.99995 7.62188 5.2687 7.63125C4.82808 7.3375 4.53745 6.83125 4.53745 6.2625C4.53745 5.9625 4.6187 5.67812 4.75933 5.43437C5.57183 6.43125 6.7812 7.08437 8.14683 7.15312C8.1187 7.03437 8.10308 6.90937 8.10308 6.77812C8.10308 5.87187 8.84058 5.13437 9.74683 5.13437C10.2187 5.13437 10.6468 5.33437 10.9468 5.65312C11.3218 5.57812 11.6718 5.44375 11.9906 5.25313C11.8687 5.6375 11.6062 5.95938 11.2687 6.1625C11.6 6.12188 11.9187 6.03437 12.2125 5.90312C11.9937 6.23438 11.7156 6.52188 11.3937 6.75625Z" fill="#8C1FFF" fill-opacity="0.8"/>
</g>
<defs>
<clipPath id="clip0_49_2921">
<rect width="16" height="16" fill="white" transform="translate(0.199951)"/>
</clipPath>
</defs>
</svg>
