<svg width="49" height="49" viewBox="0 0 49 49" fill="none" xmlns="http://www.w3.org/2000/svg">
<g clip-path="url(#clip0_69_152)">
<path d="M47.449 20.4895L42.6958 19.0754C42.2883 17.6248 41.7099 16.2277 40.9726 14.9136L43.3334 10.5546C43.4585 10.324 43.5057 10.0591 43.468 9.79948C43.4303 9.53983 43.3097 9.29932 43.1241 9.11382L41.3864 7.37608L41.2282 7.21787L39.488 5.48014C39.303 5.29475 39.0631 5.174 38.8039 5.13585C38.5448 5.09771 38.2802 5.14419 38.0496 5.2684L33.6882 7.63162C32.3758 6.89217 30.9793 6.31285 29.5289 5.90606L28.1148 1.15525C28.0395 0.904698 27.8853 0.685093 27.6754 0.529021C27.4654 0.372949 27.2107 0.288722 26.949 0.288818H21.8137C21.5514 0.289035 21.2962 0.373975 21.0862 0.530982C20.8761 0.687988 20.7224 0.908663 20.6479 1.16013L19.2338 5.91092C17.7833 6.31771 16.3869 6.89704 15.0744 7.6365L10.7131 5.27326C10.4824 5.14905 10.2179 5.10256 9.95877 5.14071C9.69962 5.17886 9.45971 5.2996 9.27467 5.485L7.53449 7.22275L7.37629 7.38095L5.63856 9.11869C5.45301 9.3042 5.33238 9.5447 5.29466 9.80435C5.25694 10.064 5.30414 10.3289 5.42924 10.5595L7.79004 14.9185C7.05278 16.2325 6.47434 17.6296 6.0669 19.0803L1.30637 20.4895C1.05536 20.5644 0.835224 20.7183 0.678685 20.9283C0.522145 21.1384 0.437562 21.3933 0.437502 21.6552V26.793C0.437038 27.0554 0.521379 27.3109 0.677957 27.5214C0.834535 27.7319 1.05496 27.8862 1.30637 27.9613L6.0596 29.3729C6.46616 30.8238 7.04465 32.221 7.78274 33.5347L5.42194 37.8936C5.29684 38.1243 5.24963 38.3892 5.28735 38.6488C5.32507 38.9085 5.4457 39.149 5.63125 39.3345L7.36899 41.0746L7.52719 41.2304L9.26737 42.9706C9.45269 43.1556 9.69274 43.2759 9.95187 43.3136C10.211 43.3513 10.4754 43.3044 10.7057 43.1799L15.0671 40.8191C16.3802 41.5568 17.7765 42.1352 19.2265 42.5422L20.6406 47.2955C20.7155 47.5465 20.8694 47.7666 21.0794 47.9231C21.2895 48.0797 21.5444 48.1643 21.8064 48.1643H26.949C27.211 48.1643 27.4659 48.0797 27.6759 47.9231C27.886 47.7666 28.0399 47.5465 28.1148 47.2955L29.5289 42.5422C30.9789 42.1352 32.3752 41.5568 33.6882 40.8191L38.0496 43.1799C38.28 43.3044 38.5444 43.3513 38.8035 43.3136C39.0626 43.2759 39.3027 43.1556 39.488 42.9706L41.2282 41.2304L41.3864 41.0746L43.1241 39.3345C43.3097 39.149 43.4303 38.9085 43.468 38.6488C43.5057 38.3892 43.4585 38.1243 43.3334 37.8936L40.9726 33.5347C41.7107 32.221 42.2892 30.8238 42.6958 29.3729L47.449 27.9613C47.7004 27.8862 47.9208 27.7319 48.0774 27.5214C48.234 27.3109 48.3183 27.0554 48.3179 26.793V21.6528C48.3173 21.3913 48.2325 21.1369 48.076 20.9273C47.9195 20.7178 47.6996 20.5643 47.449 20.4895Z" fill="url(#paint0_linear_69_152)"/>
<path d="M17.8684 23.8649L22.4245 28.7472L30.8893 19.6982" stroke="white" stroke-width="2.23099" stroke-linecap="round" stroke-linejoin="round"/>
<path d="M24.3788 37.4113C31.6628 37.4113 37.5676 31.5065 37.5676 24.2225C37.5676 16.9385 31.6628 11.0337 24.3788 11.0337C17.0948 11.0337 11.1899 16.9385 11.1899 24.2225C11.1899 31.5065 17.0948 37.4113 24.3788 37.4113Z" stroke="white" stroke-width="2.23099" stroke-linecap="round" stroke-linejoin="round"/>
</g>
<defs>
<linearGradient id="paint0_linear_69_152" x1="24.3777" y1="0.288818" x2="24.3777" y2="48.1643" gradientUnits="userSpaceOnUse">
<stop stop-color="#22948D"/>
<stop offset="1" stop-color="#60FA39"/>
</linearGradient>
<clipPath id="clip0_69_152">
<rect width="47.8828" height="47.8828" fill="white" transform="translate(0.4375 0.28125)"/>
</clipPath>
</defs>
</svg>
