<svg width="143" height="113" viewBox="0 0 143 113" fill="none" xmlns="http://www.w3.org/2000/svg">
<g filter="url(#filter0_f_79_32)">
<path d="M7.31307 53.9297L26.3141 19.8756C33.0154 7.90049 47.6252 1.26848 58.9883 5.07306L123.275 26.5908C134.638 30.3953 138.405 43.2228 131.725 55.1771L112.724 89.2104C106.023 101.185 91.4128 107.921 80.0496 104.034L15.7626 82.4952C4.35782 78.6906 0.632545 65.9047 7.31307 53.9297Z" fill="url(#paint0_radial_79_32)"/>
<path style="mix-blend-mode:overlay" d="M15.7626 82.4952L80.0496 104.034C91.4128 107.838 106.023 101.185 112.724 89.2104L131.725 55.1771C138.405 43.202 134.638 30.3953 123.275 26.5908L58.9883 5.07306C47.6252 1.26848 33.0154 7.90049 26.3141 19.8756L7.31307 53.9297C0.632545 65.9047 4.35782 78.6906 15.7626 82.4952ZM5.35677 72.5576C4.32626 69.5058 3.97858 66.2653 4.33817 63.0647C4.69776 59.8641 5.75586 56.7813 7.43793 54.0336L26.4389 20.0004C28.937 15.5515 32.4941 11.7863 36.7956 9.03762C41.097 6.28899 46.0103 4.64168 51.1008 4.24147C53.716 4.12405 56.331 4.47613 58.8218 5.28097L123.13 26.8195C125.475 27.5685 127.625 28.8278 129.424 30.5067C131.223 32.1855 132.628 34.2421 133.535 36.5284C134.566 39.5802 134.914 42.8207 134.554 46.0213C134.194 49.2219 133.136 52.3047 131.454 55.0523L112.578 89.1064C110.083 93.5561 106.527 97.3212 102.224 100.067C97.9217 102.812 93.0069 104.454 87.9165 104.845C85.3004 104.983 82.6815 104.63 80.1953 103.805L15.8874 82.2665C13.527 81.5376 11.3618 80.286 9.55288 78.6049C7.74398 76.9239 6.33817 74.8568 5.4401 72.5576H5.35677Z" fill="url(#paint1_linear_79_32)"/>
<g filter="url(#filter1_i_79_32)">
<path d="M86.7303 41.6846C86.8832 41.7398 87.0209 41.8301 87.1326 41.9482C87.2443 42.0663 87.3268 42.2089 87.3733 42.3645C87.4198 42.5202 87.4292 42.6846 87.4006 42.8445C87.3721 43.0044 87.3064 43.1554 87.2089 43.2854L71.0799 72.1628C70.9127 72.4869 70.6411 72.7453 70.3088 72.8962C69.9765 73.047 69.6029 73.0816 69.2485 72.9944C69.0567 72.9279 68.8898 72.8046 68.7699 72.6409L53.1404 50.3124C52.6201 49.5848 53.286 48.3997 54.3058 48.2334L86.0643 41.7261C86.2831 41.6724 86.5116 41.6724 86.7303 41.7261" fill="url(#paint2_linear_79_32)"/>
</g>
<path d="M134.181 35.6136L131.309 31.9753C136.054 37.7758 136.574 46.6739 131.829 55.177L112.828 89.2103C106.127 101.185 91.5169 107.921 80.1538 104.034L15.8668 82.4952C12.7655 81.4999 10.0139 79.6386 7.9375 77.1313L10.9137 80.7696C12.9781 83.2806 15.7241 85.1431 18.8221 86.1334L83.1298 107.672C94.493 111.476 109.103 104.844 115.783 92.8694L134.805 58.8153C139.446 50.3122 138.926 41.4348 134.181 35.6136Z" fill="url(#paint3_linear_79_32)"/>
</g>
<defs>
<filter id="filter0_f_79_32" x="0" y="-0.000244141" width="142.026" height="112.745" filterUnits="userSpaceOnUse" color-interpolation-filters="sRGB">
<feFlood flood-opacity="0" result="BackgroundImageFix"/>
<feBlend mode="normal" in="SourceGraphic" in2="BackgroundImageFix" result="shape"/>
<feGaussianBlur stdDeviation="2" result="effect1_foregroundBlur_79_32"/>
</filter>
<filter id="filter1_i_79_32" x="52.9592" y="41.6846" width="35.2575" height="32.1569" filterUnits="userSpaceOnUse" color-interpolation-filters="sRGB">
<feFlood flood-opacity="0" result="BackgroundImageFix"/>
<feBlend mode="normal" in="SourceGraphic" in2="BackgroundImageFix" result="shape"/>
<feColorMatrix in="SourceAlpha" type="matrix" values="0 0 0 0 0 0 0 0 0 0 0 0 0 0 0 0 0 0 127 0" result="hardAlpha"/>
<feOffset dx="2" dy="2"/>
<feGaussianBlur stdDeviation="0.4"/>
<feComposite in2="hardAlpha" operator="arithmetic" k2="-1" k3="1"/>
<feColorMatrix type="matrix" values="0 0 0 0 0 0 0 0 0 0 0 0 0 0 0 0 0 0 0.58 0"/>
<feBlend mode="normal" in2="shape" result="effect1_innerShadow_79_32"/>
</filter>
<radialGradient id="paint0_radial_79_32" cx="0" cy="0" r="1" gradientUnits="userSpaceOnUse" gradientTransform="translate(111.329 121.146) rotate(177.712) scale(128.01 127.878)">
<stop stop-color="#DA334F"/>
<stop offset="0.68" stop-color="#FF597D"/>
<stop offset="0.99" stop-color="#FFA19A"/>
</radialGradient>
<linearGradient id="paint1_linear_79_32" x1="43.9731" y1="18.4294" x2="100.793" y2="123.216" gradientUnits="userSpaceOnUse">
<stop offset="0.08" stop-color="white"/>
<stop offset="0.16" stop-color="white" stop-opacity="0.95"/>
<stop offset="0.32" stop-color="white" stop-opacity="0.8"/>
<stop offset="0.54" stop-color="white" stop-opacity="0.57"/>
<stop offset="0.8" stop-color="white" stop-opacity="0.26"/>
<stop offset="1" stop-color="white" stop-opacity="0"/>
</linearGradient>
<linearGradient id="paint2_linear_79_32" x1="70.1567" y1="53.8867" x2="85.6595" y2="97.151" gradientUnits="userSpaceOnUse">
<stop stop-color="white"/>
<stop offset="0.88" stop-color="#FFC2FF"/>
<stop offset="1" stop-color="#FFB9FF"/>
</linearGradient>
<linearGradient id="paint3_linear_79_32" x1="26.2725" y1="36.6323" x2="132.539" y2="85.8015" gradientUnits="userSpaceOnUse">
<stop stop-color="#ED1D77"/>
<stop offset="0.01" stop-color="#E01B77"/>
<stop offset="0.05" stop-color="#AF1479"/>
<stop offset="0.09" stop-color="#91107A"/>
<stop offset="0.1" stop-color="#860E7A"/>
<stop offset="0.19" stop-color="#830D7A"/>
<stop offset="0.57" stop-color="#810D7A"/>
<stop offset="0.63" stop-color="#810D7A"/>
<stop offset="0.73" stop-color="#840D7A"/>
<stop offset="0.8" stop-color="#8C0F7A"/>
<stop offset="0.85" stop-color="#9B1179"/>
<stop offset="0.9" stop-color="#B01478"/>
<stop offset="0.93" stop-color="#BE1678"/>
<stop offset="0.98" stop-color="#ED1D77"/>
</linearGradient>
</defs>
</svg>
