<svg xmlns="http://www.w3.org/2000/svg" version="1.1" width="96px" height="96px" viewBox="0 0 96 96" style="shape-rendering:geometricPrecision; text-rendering:geometricPrecision; image-rendering:optimizeQuality; fill-rule:evenodd; clip-rule:evenodd" xmlns:xlink="http://www.w3.org/1999/xlink">
<g><path style="opacity:1" fill="#f8b933" d="M 41.5,2.5 C 62.9707,1.14727 78.8041,9.81393 89,28.5C 91.2517,33.5914 92.4184,38.9247 92.5,44.5C 89.4291,41.7536 86.4291,39.0869 83.5,36.5C 79.7627,30.4276 74.7627,25.761 68.5,22.5C 64.3422,19.6676 59.6755,18.001 54.5,17.5C 32.7122,14.6424 17.5455,23.3091 9,43.5C 7.44187,52.3855 9.44187,60.3855 15,67.5C 16.451,69.4641 18.2843,70.7974 20.5,71.5C 21.4363,72.9744 22.7697,73.9744 24.5,74.5C 31.3138,80.7368 38.3138,86.7368 45.5,92.5C 24.8649,90.7027 11.0316,80.036 4,60.5C -0.960999,37.2718 6.539,19.4384 26.5,7C 31.3703,5.03289 36.3703,3.53289 41.5,2.5 Z"/></g>
<g><path style="opacity:0.337" fill="#59395e" d="M 55.5,1.5 C 50.6367,1.18054 45.97,1.51388 41.5,2.5C 36.3703,3.53289 31.3703,5.03289 26.5,7C 6.539,19.4384 -0.960999,37.2718 4,60.5C 11.0316,80.036 24.8649,90.7027 45.5,92.5C 58.5693,93.0398 69.5693,88.7064 78.5,79.5C 81.1939,77.4728 83.5272,75.1395 85.5,72.5C 85.5,73.5 85.5,74.5 85.5,75.5C 69.4578,94.4803 49.7912,99.3136 26.5,90C 1.99472,74.8189 -5.17195,53.6522 5,26.5C 16.1983,6.48359 33.0316,-1.84974 55.5,1.5 Z"/></g>
<g><path style="opacity:1" fill="#472c51" d="M 54.5,17.5 C 59.6755,18.001 64.3422,19.6676 68.5,22.5C 67.2134,26.0649 67.2134,29.7316 68.5,33.5C 66.0462,32.7729 63.7128,31.7729 61.5,30.5C 60.7485,27.2527 60.2485,23.9194 60,20.5C 59.5034,22.8098 59.3367,25.1432 59.5,27.5C 56.8589,28.2631 54.1922,28.4298 51.5,28C 51.9554,24.2621 52.9554,20.7621 54.5,17.5 Z"/></g>
<g><path style="opacity:1" fill="#5e3c68" d="M 54.5,17.5 C 52.9554,20.7621 51.9554,24.2621 51.5,28C 54.1922,28.4298 56.8589,28.2631 59.5,27.5C 59.3367,25.1432 59.5034,22.8098 60,20.5C 60.2485,23.9194 60.7485,27.2527 61.5,30.5C 54.9076,28.7659 48.5742,29.4326 42.5,32.5C 29.0773,26.617 19.5773,30.617 14,44.5C 13.3333,50.1667 13.3333,55.8333 14,61.5C 15.0259,64.2387 16.5259,66.572 18.5,68.5C 19.1667,69.5 19.8333,70.5 20.5,71.5C 18.2843,70.7974 16.451,69.4641 15,67.5C 9.44187,60.3855 7.44187,52.3855 9,43.5C 17.5455,23.3091 32.7122,14.6424 54.5,17.5 Z"/></g>
<g><path style="opacity:1" fill="#fbfbfb" d="M 61.5,30.5 C 63.7128,31.7729 66.0462,32.7729 68.5,33.5C 77.6356,43.788 78.969,55.1214 72.5,67.5C 58.2414,74.4045 43.2414,76.2379 27.5,73C 24.1853,71.9617 21.1853,70.4617 18.5,68.5C 16.5259,66.572 15.0259,64.2387 14,61.5C 13.3333,55.8333 13.3333,50.1667 14,44.5C 19.5773,30.617 29.0773,26.617 42.5,32.5C 48.5742,29.4326 54.9076,28.7659 61.5,30.5 Z"/></g>
<g><path style="opacity:1" fill="#392440" d="M 68.5,22.5 C 74.7627,25.761 79.7627,30.4276 83.5,36.5C 89.011,48.931 87.011,59.931 77.5,69.5C 73.9829,71.424 70.3163,73.0906 66.5,74.5C 68.5,72.1667 70.5,69.8333 72.5,67.5C 78.969,55.1214 77.6356,43.788 68.5,33.5C 67.2134,29.7316 67.2134,26.0649 68.5,22.5 Z"/></g>
<g><path style="opacity:1" fill="#555555" d="M 27.5,39.5 C 29.1849,38.156 30.8516,38.3227 32.5,40C 30.8925,39.9813 29.2259,39.8146 27.5,39.5 Z"/></g>
<g><path style="opacity:1" fill="#aaaaaa" d="M 54.5,38.5 C 56.288,38.2148 57.9547,38.5481 59.5,39.5C 57.5787,40.641 55.5787,40.8077 53.5,40C 54.056,39.6174 54.3893,39.1174 54.5,38.5 Z"/></g>
<g><path style="opacity:1" fill="#966c37" d="M 83.5,36.5 C 86.4291,39.0869 89.4291,41.7536 92.5,44.5C 92.6727,54.4758 90.3394,63.8091 85.5,72.5C 83.5272,75.1395 81.1939,77.4728 78.5,79.5C 78.0825,78.7784 77.4158,78.2784 76.5,78C 77.1667,77.6667 77.8333,77.3333 78.5,77C 75.0338,74.8064 74.7005,72.3064 77.5,69.5C 87.011,59.931 89.011,48.931 83.5,36.5 Z"/></g>
<g><path style="opacity:1" fill="#a09ea0" d="M 31.5,43.5 C 29.0532,43.615 27.0532,44.615 25.5,46.5C 24.7784,46.9175 24.2784,47.5842 24,48.5C 24.283,43.3727 26.783,41.706 31.5,43.5 Z"/></g>
<g><path style="opacity:1" fill="#100f11" d="M 32.5,44.5 C 34.0265,45.4919 34.6932,46.9919 34.5,49C 34.876,51.6546 33.876,53.488 31.5,54.5C 28.7077,54.0897 27.7077,52.7564 28.5,50.5C 28.5,49.8333 28.5,49.1667 28.5,48.5C 28.1667,45.5 29.5,44.1667 32.5,44.5 Z"/></g>
<g><path style="opacity:1" fill="#131214" d="M 53.5,44.5 C 58.1514,45.1742 59.6514,47.8408 58,52.5C 57.1841,53.8228 56.0174,54.4894 54.5,54.5C 51.0324,51.4916 50.6991,48.1583 53.5,44.5 Z"/></g>
<g><path style="opacity:1" fill="#a4a1a6" d="M 55.5,43.5 C 58.1024,42.0313 60.269,42.698 62,45.5C 62.405,47.7749 61.905,49.7749 60.5,51.5C 61.2394,47.2536 59.5727,44.587 55.5,43.5 Z"/></g>
<g><path style="opacity:1" fill="#564860" d="M 31.5,43.5 C 32.1667,43.5 32.5,43.8333 32.5,44.5C 29.5,44.1667 28.1667,45.5 28.5,48.5C 25.8333,49.1667 25.8333,49.8333 28.5,50.5C 27.7077,52.7564 28.7077,54.0897 31.5,54.5C 30.1155,55.8009 28.6155,55.8009 27,54.5C 25.7475,51.9865 25.2475,49.3198 25.5,46.5C 27.0532,44.615 29.0532,43.615 31.5,43.5 Z"/></g>
<g><path style="opacity:1" fill="#e9e8ea" d="M 28.5,48.5 C 28.5,49.1667 28.5,49.8333 28.5,50.5C 25.8333,49.8333 25.8333,49.1667 28.5,48.5 Z"/></g>
<g><path style="opacity:1" fill="#d7d7d7" d="M 53.5,48.5 C 55.337,48.6395 55.6704,49.3061 54.5,50.5C 53.7025,50.0431 53.3691,49.3764 53.5,48.5 Z"/></g>
<g><path style="opacity:1" fill="#4d3c58" d="M 53.5,44.5 C 53.8417,43.6618 54.5084,43.3284 55.5,43.5C 59.5727,44.587 61.2394,47.2536 60.5,51.5C 59.6638,55.1906 57.6638,56.1906 54.5,54.5C 56.0174,54.4894 57.1841,53.8228 58,52.5C 59.6514,47.8408 58.1514,45.1742 53.5,44.5 Z"/></g>
<g><path style="opacity:1" fill="#e4a845" d="M 40.5,53.5 C 42.8333,54.1667 45.1667,54.8333 47.5,55.5C 46.8258,60.1514 44.1592,61.6514 39.5,60C 35.4583,57.198 35.7916,55.0314 40.5,53.5 Z"/></g>
<g><path style="opacity:0.316" fill="#392538" d="M 41.5,2.5 C 45.97,1.51388 50.6367,1.18054 55.5,1.5C 72.0309,4.18328 83.8642,13.1833 91,28.5C 97.1149,45.2557 95.2815,60.9224 85.5,75.5C 85.5,74.5 85.5,73.5 85.5,72.5C 90.3394,63.8091 92.6727,54.4758 92.5,44.5C 92.4184,38.9247 91.2517,33.5914 89,28.5C 78.8041,9.81393 62.9707,1.14727 41.5,2.5 Z"/></g>
<g><path style="opacity:1" fill="#d7d4d3" d="M 72.5,67.5 C 70.5,69.8333 68.5,72.1667 66.5,74.5C 52.4469,79.8282 38.4469,79.8282 24.5,74.5C 22.7697,73.9744 21.4363,72.9744 20.5,71.5C 19.8333,70.5 19.1667,69.5 18.5,68.5C 21.1853,70.4617 24.1853,71.9617 27.5,73C 43.2414,76.2379 58.2414,74.4045 72.5,67.5 Z"/></g>
<g><path style="opacity:1" fill="#a57647" d="M 77.5,69.5 C 74.7005,72.3064 75.0338,74.8064 78.5,77C 77.8333,77.3333 77.1667,77.6667 76.5,78C 77.4158,78.2784 78.0825,78.7784 78.5,79.5C 69.5693,88.7064 58.5693,93.0398 45.5,92.5C 38.3138,86.7368 31.3138,80.7368 24.5,74.5C 38.4469,79.8282 52.4469,79.8282 66.5,74.5C 70.3163,73.0906 73.9829,71.424 77.5,69.5 Z"/></g>
</svg>
