<svg width="71" height="44" viewBox="0 0 71 44" fill="none" xmlns="http://www.w3.org/2000/svg">
<g clip-path="url(#clip0_49_2902)">
<path d="M48.52 22.79L50.9599 19.04C46.2799 15.99 40.23 14.15 33.61 14.15C26.99 14.15 20.76 16.05 16.05 19.17L16.02 19.13C14.39 20.19 12.88 21.53 12.2 22.16L12.27 22.26L15.31 26.85L17.43 30.06L19.69 33.46L23.28 38.88L27.53 36.49L23.86 30.95C27.17 29.39 30.97 28.5 35 28.5C38.12 28.5 41.1 29.03 43.83 30.01L46.2099 26.35C42.7699 24.61 38.78 23.62 34.52 23.62C29.64 23.62 25.11 24.92 21.35 27.15L18.96 23.54C23.03 20.58 28.2599 18.8 33.9599 18.8C39.3699 18.8 44.52 20.14 48.52 22.77V22.79Z" fill="#633494"/>
<path d="M70.47 2.39L62.34 14.65L59.42 19.06L56.33 23.72L53.55 27.9L51.89 30.4L49.93 33.36C48.6 32.46 47.17 31.68 45.64 31.04L47.95 27.55L50.21 24.15L52.68 20.41L55.68 15.89C55.27 15.6 54.84 15.32 54.4 15.05C49.05 11.72 41.93 9.7 34.11 9.7C26.8 9.7 20.11 11.47 14.89 14.42C14.69 14.53 14.5 14.64 14.3 14.76C14.27 14.77 14.25 14.79 14.22 14.81C12.45 15.76 10.66 17.27 9.68 18.15L6.83 13.84L0 3.5L4.25 1.11L10.79 10.97C17.04 7.11 25.2 4.78 34.12 4.78C43.04 4.78 50.94 7.04 57.16 10.79C57.61 11.07 58.06 11.35 58.5 11.64L66.22 0L70.47 2.39Z" fill="#F26622"/>
<path d="M35.2399 43.67C37.7584 43.67 39.7999 41.6285 39.7999 39.1101C39.7999 36.5916 37.7584 34.55 35.2399 34.55C32.7215 34.55 30.6799 36.5916 30.6799 39.1101C30.6799 41.6285 32.7215 43.67 35.2399 43.67Z" fill="#633494"/>
</g>
<defs>
<clipPath id="clip0_49_2902">
<rect width="70.47" height="43.66" fill="white"/>
</clipPath>
</defs>
</svg>
